<svg width="27" height="26" viewBox="0 0 27 26" fill="none" xmlns="http://www.w3.org/2000/svg">
<g clip-path="url(#clip0_6026_2249)">
<path d="M16.5277 7.7617C11.7592 7.7617 9.44519 5.47464 9.44519 0.777899C9.44519 0.351407 9.09376 0.00488281 8.66125 0.00488281C8.22873 0.00488281 7.8773 0.351407 7.8773 0.777899C7.8773 5.47997 5.55792 7.7617 0.794805 7.7617C0.362286 7.7617 0.0108643 8.10823 0.0108643 8.53472C0.0108643 8.96121 0.362286 9.30773 0.794805 9.30773C5.56333 9.30773 7.8773 11.5948 7.8773 16.2915C7.8773 16.718 8.22873 17.0646 8.66125 17.0646C9.09376 17.0646 9.44519 16.718 9.44519 16.2915C9.44519 11.5895 11.7646 9.30773 16.5277 9.30773C16.9602 9.30773 17.3116 8.96121 17.3116 8.53472C17.3116 8.10823 16.9602 7.7617 16.5277 7.7617Z" fill="#ED780B"/>
<path d="M26.2971 20.2744C23.7344 20.2744 22.4855 19.0696 22.4855 16.5906C22.4855 16.2174 22.172 15.9082 21.7827 15.9082C21.3934 15.9082 21.0798 16.2121 21.0798 16.5906C21.0798 19.0696 19.8309 20.2744 17.2683 20.2744C16.879 20.2744 16.5654 20.5783 16.5654 20.9568C16.5654 21.3353 16.879 21.6392 17.2683 21.6392C19.8309 21.6392 21.0798 22.844 21.0798 25.323C21.0798 25.6962 21.3934 26.0054 21.7827 26.0054C22.172 26.0054 22.4855 25.7015 22.4855 25.323C22.4855 22.844 23.7344 21.6392 26.2971 21.6392C26.6864 21.6392 27 21.3353 27 20.9568C27 20.5783 26.6864 20.2744 26.2971 20.2744Z" fill="#ED780B"/>
</g>
<defs>
<clipPath id="clip0_6026_2249">
<rect width="27" height="26" fill="white"/>
</clipPath>
</defs>
</svg>
