<svg width="16" height="16" viewBox="0 0 16 16" fill="none" xmlns="http://www.w3.org/2000/svg">
<g clip-path="url(#clip0_6026_2237)">
<path d="M9.68305 9.72136C9.44426 9.97013 9.05681 9.98346 8.81487 9.75122L5.19846 6.27985C4.95652 6.04762 4.95399 5.65995 5.19278 5.41118C5.43157 5.16241 5.81902 5.14909 6.06095 5.38132L9.67737 8.85269C9.91931 9.08492 9.92184 9.4726 9.68305 9.72136Z" fill="black"/>
<path d="M12.8689 7.1688C12.9007 7.36697 12.8321 7.56501 12.7002 7.70239C12.6111 7.79521 12.4949 7.86204 12.3605 7.88641C12.0254 7.95 11.71 7.72927 11.6594 7.39531L10.784 1.93933C10.7298 1.60909 10.9591 1.28345 11.2942 1.22346C11.6293 1.15987 11.9448 1.3806 11.9954 1.71456L12.8653 7.16893L12.8689 7.1688Z" fill="black"/>
<path d="M7.95884 12.4688C7.93999 12.604 7.87797 12.7229 7.78887 12.8157C7.657 12.9531 7.46374 13.0315 7.26263 13.0061L1.77724 12.36C1.44147 12.3195 1.20982 12.0151 1.25787 11.6796C1.30588 11.3404 1.6183 11.1017 1.95227 11.1405L7.43766 11.7866C7.77343 11.8271 8.00508 12.1315 7.95703 12.467L7.95884 12.4688Z" fill="black"/>
</g>
<defs>
<clipPath id="clip0_6026_2237">
<rect width="15" height="7" fill="white" transform="matrix(-0.692491 0.721426 0.721426 0.692491 10.3873 0)"/>
</clipPath>
</defs>
</svg>
