<svg width="241" height="132" viewBox="0 0 241 132" fill="none" xmlns="http://www.w3.org/2000/svg">
<g id="_&#227;&#131;&#172;&#227;&#130;&#164;&#227;&#131;&#164;&#227;&#131;&#188;_1" clip-path="url(#clip0_6026_2036)">
<g id="Group">
<g id="Group_2">
<path id="Vector" d="M142.937 30.8678C143.377 32.4379 143.982 33.5014 144.515 34.4426C145.349 35.9198 146.141 37.3168 146.234 40.4906C146.238 40.6552 146.34 40.8071 146.496 40.8873L146.678 40.9844L147.36 43.4449L146.894 43.5673C145.976 43.8121 145.366 44.8039 145.133 46.4372C144.659 49.7376 145.798 55.545 149.103 57.4147C149.15 57.44 149.209 57.4569 149.285 57.4654L149.599 57.4991L149.688 57.803C150.166 59.4026 150.928 61.0654 152.087 63.0322L152.151 63.1419L152.782 81.7627C152.782 81.7627 150.153 106.081 170.55 118.409C178.498 122.659 189.63 95.5679 190.201 81.7627L190.832 63.1461L190.895 63.0364C192.055 61.0654 192.817 59.4068 193.295 57.8072L193.384 57.5033L193.697 57.4696C193.774 57.4611 193.833 57.4443 193.879 57.4189C197.185 55.5493 198.323 49.7419 197.849 46.4414C197.612 44.7955 196.999 43.7994 196.072 43.5631L195.619 43.3731L195.97 42.1281C195.97 42.1281 198.476 35.9789 199.301 33.9446C199.801 32.7122 200.194 31.7373 200.211 30.9818C200.266 28.1794 199.902 25.9974 197.866 23.1317C197.752 22.9755 197.574 22.9502 197.481 22.9502H197.02L197.011 22.486C196.999 21.9204 196.952 21.0299 196.791 20.0085C196.791 20.0085 193.283 10.2086 189.511 9.38978C189.287 9.33913 189.067 9.31803 188.855 9.31803C188.191 9.31803 187.598 9.55438 187.09 10.0228C187.078 10.0355 187.052 10.0819 187.023 10.1326L186.781 10.542L184.784 9.34757L185.025 8.9424C185.08 8.85377 185.105 8.78203 185.105 8.7145C185.105 8.53302 185.122 4.25766 179.341 2.27825C179.29 2.26137 179.239 2.25293 179.188 2.25293C178.985 2.25293 178.807 2.38376 178.74 2.57369C178.655 2.8227 178.786 3.09281 179.036 3.17722C179.332 3.27851 179.607 3.38824 179.87 3.50219L179.713 4.4096C179.379 4.4307 179.091 4.52355 178.85 4.67971L178.443 4.9456L178.189 4.53199C178.13 4.43914 178.075 4.38006 178.007 4.35051C175.485 3.13079 172.666 2.48928 169.856 2.48928C166.317 2.48928 163.016 3.47265 160.311 5.33389C160.205 5.40563 160.138 5.51537 160.112 5.63776C160.095 5.73905 160.112 5.84035 160.155 5.9332L160.176 5.94586L160.392 6.37635L160.125 6.61692C160.006 6.72665 159.905 6.84482 159.824 6.96722L159.609 7.26265L159.262 7.16136C159.228 7.15292 159.181 7.13603 159.164 7.13603C151.541 7.13603 144.617 14.619 144.058 20.3926C144.033 20.65 144.27 20.8653 144.532 20.8653H144.884L144.985 21.1987C145.044 21.3928 145.138 21.5785 145.256 21.7474L145.442 22.0048L145.277 22.2749C144.054 24.2501 142.128 27.9937 142.937 30.8678Z" fill="white"/>
<path id="Vector_2" d="M195.352 15.1258C192.91 12.201 190.15 8.00164 187.425 10.3736L184.64 8.71069C184.64 8.71069 169.199 3.17341 161.848 7.60914C161.848 7.60914 148.557 10.7576 148.384 19.0635C148.384 19.0635 147.829 25.1115 146.708 28.2389C145.59 31.3705 149.34 42.1707 149.34 42.1707C149.34 42.1707 150.517 24.069 161.06 21.6254C161.06 21.6254 164.912 16.9406 167.646 18.2363C167.646 18.2363 176.073 14.0707 177.681 17.4091C177.681 17.4091 182.468 18.4178 182.358 21.5874C182.358 21.5874 185.41 21.8237 188.834 26.4452C188.834 26.4452 193.659 29.5852 193.659 43.2934L195.945 44.0108C195.945 44.0108 197.595 38.2203 198.671 34.27C199.746 30.3196 200.33 29.2012 197.49 23.4064C197.49 23.4064 197.794 18.0422 195.352 15.1174V15.1258Z" fill="#FED049"/>
<path id="Vector_3" d="M190.874 52.511C190.874 49.945 188.788 47.8643 186.214 47.8643C183.641 47.8643 181.554 49.945 181.554 52.511C181.554 55.0771 183.641 57.1578 186.214 57.1578C188.788 57.1578 190.874 55.0771 190.874 52.511Z" fill="#FFF7DE"/>
<path id="Vector_4" d="M161.441 52.511C161.441 49.945 159.355 47.8643 156.781 47.8643C154.208 47.8643 152.121 49.945 152.121 52.511C152.121 55.0771 154.208 57.1578 156.781 57.1578C159.355 57.1578 161.441 55.0771 161.441 52.511Z" fill="#FFF7DE"/>
<g id="Group_3">
<path id="Vector_5" d="M171.498 82.7169C182.13 82.7169 186.472 73.3727 189.342 67.1939C190.019 65.7336 190.608 64.4717 191.179 63.5094C194.468 58.0144 194.603 55.1233 194.603 49.1134C194.603 48.59 194.18 48.168 193.655 48.168C193.13 48.168 192.707 48.59 192.707 49.1134C192.707 55.1655 192.555 57.5163 189.549 62.5387C188.923 63.5854 188.318 64.8853 187.619 66.3963C184.792 72.4864 180.919 80.8219 171.498 80.8219C162.076 80.8219 158.203 72.4822 155.376 66.3963C154.673 64.8853 154.068 63.5854 153.446 62.5387C150.441 57.5163 150.288 55.1655 150.288 49.1134C150.288 48.59 149.865 48.168 149.34 48.168C148.816 48.168 148.392 48.59 148.392 49.1134C148.392 55.1233 148.532 58.0144 151.816 63.5094C152.392 64.4717 152.976 65.7336 153.653 67.1939C156.523 73.377 160.861 82.7169 171.498 82.7169Z" fill="#282846"/>
<path id="Vector_6" d="M193.189 56.1863C192.732 56.4437 192.571 57.0219 192.834 57.4777C193.007 57.7858 193.329 57.9589 193.659 57.9589C193.816 57.9589 193.981 57.9209 194.129 57.8365C197.612 55.8655 198.827 49.8091 198.336 46.3778C197.993 44.0059 196.969 43.2842 196.165 43.0943C195.653 42.9761 195.145 43.2884 195.022 43.7991C194.899 44.3098 195.217 44.8163 195.729 44.9387C195.928 44.9851 196.288 45.4789 196.453 46.6437C196.918 49.8682 195.564 54.8399 193.189 56.1863Z" fill="#282846"/>
<path id="Vector_7" d="M147.271 44.9387C147.783 44.8205 148.096 44.3098 147.978 43.7991C147.859 43.2884 147.343 42.9761 146.835 43.0943C146.035 43.2842 145.006 44.0059 144.664 46.3778C144.168 49.8091 145.383 55.8613 148.871 57.8365C149.019 57.9209 149.18 57.9589 149.34 57.9589C149.671 57.9589 149.992 57.7858 150.166 57.4777C150.424 57.0219 150.263 56.4437 149.81 56.1863C147.436 54.8441 146.086 49.8682 146.547 46.6437C146.716 45.4789 147.072 44.9851 147.271 44.9387Z" fill="#282846"/>
<path id="Vector_8" d="M185.207 24.6218C185.296 24.5585 187.378 23.056 189.664 24.6429C189.829 24.7569 190.019 24.8117 190.205 24.8117C190.506 24.8117 190.802 24.6682 190.984 24.4066C191.285 23.9761 191.179 23.3894 190.747 23.0898C187.992 21.1779 185.169 22.271 184.06 23.1151C183.645 23.4316 183.565 24.0183 183.878 24.4361C184.191 24.8497 184.784 24.9341 185.207 24.626V24.6218Z" fill="#282846"/>
<path id="Vector_9" d="M193.579 43.4532C193.579 43.9766 194.002 44.3986 194.527 44.3986C195.052 44.3986 195.475 43.9766 195.475 43.4532C195.475 32.1254 193.659 27.3647 188.542 25.2629C188.06 25.0646 187.501 25.2925 187.302 25.7778C187.103 26.2632 187.332 26.8161 187.818 27.0144C191.463 28.5127 193.575 31.6823 193.575 43.4532H193.579Z" fill="#282846"/>
<path id="Vector_10" d="M181.952 22.4478C182.083 22.5111 182.223 22.5407 182.358 22.5407C182.714 22.5407 183.057 22.3423 183.218 22.0005C183.273 21.8823 184.585 19.0292 182.083 15.9483C181.753 15.5389 181.156 15.4798 180.746 15.809C180.339 16.1382 180.276 16.7333 180.606 17.1427C182.32 19.2571 181.537 21.1057 181.495 21.1986C181.275 21.6713 181.478 22.2284 181.952 22.452V22.4478Z" fill="#282846"/>
<path id="Vector_11" d="M177.343 19.9538C177.453 19.9918 177.563 20.0129 177.669 20.0129C178.054 20.0129 178.418 19.7765 178.562 19.3925C178.799 18.7467 178.968 17.3371 178.092 16.1511C177.021 14.6951 174.782 14.0409 171.451 14.2055C170.926 14.2308 170.524 14.674 170.55 15.1973C170.575 15.7207 171.015 16.1089 171.544 16.0963C175.015 15.9232 176.17 16.7505 176.551 17.2569C177.042 17.9069 176.793 18.6961 176.776 18.7467C176.602 19.2363 176.852 19.7723 177.343 19.9538Z" fill="#282846"/>
<path id="Vector_12" d="M162.279 18.894C165.318 17.3282 168.188 19.6748 168.319 19.7846C168.497 19.9365 168.717 20.0082 168.933 20.0082C169.199 20.0082 169.47 19.8943 169.657 19.6748C169.995 19.2781 169.949 18.6788 169.551 18.3412C169.39 18.2061 165.598 15.0492 161.407 17.2101C160.942 17.4506 160.76 18.0204 161.001 18.4847C161.242 18.9489 161.814 19.1304 162.279 18.8898V18.894Z" fill="#282846"/>
<path id="Vector_13" d="M149.772 44.0186C149.772 31.5724 154.847 22.5363 161.839 22.5363C162.364 22.5363 162.787 22.1142 162.787 21.5909C162.787 21.0676 162.364 20.6455 161.839 20.6455C153.747 20.6455 147.872 30.475 147.872 44.0228C147.872 44.5461 148.295 44.9682 148.82 44.9682C149.345 44.9682 149.768 44.5461 149.768 44.0228L149.772 44.0186Z" fill="#282846"/>
<path id="Vector_14" d="M188.064 11.0696C188.364 10.7952 188.648 10.7108 189.008 10.7868C191.314 11.289 194.802 17.3074 196.537 21.4266C196.69 21.7896 197.041 22.0048 197.414 22.0048C197.536 22.0048 197.663 21.9795 197.782 21.9289C198.264 21.7263 198.493 21.1692 198.29 20.688C198.103 20.2449 193.672 9.85827 189.414 8.93399C188.449 8.72296 187.535 8.98041 186.781 9.67257C186.396 10.0271 186.371 10.6264 186.726 11.0105C187.082 11.3945 187.683 11.4199 188.068 11.0653L188.064 11.0696Z" fill="#282846"/>
<path id="Vector_15" d="M197.659 33.7333C196.44 36.2276 194.768 39.6462 194.679 43.3561C194.667 43.8794 195.081 44.3141 195.606 44.3268C195.615 44.3268 195.623 44.3268 195.632 44.3268C196.144 44.3268 196.567 43.9174 196.58 43.4025C196.66 40.1063 198.226 36.9029 199.369 34.5648C200.131 33.0032 200.681 31.8805 200.698 31.0027C200.753 28.1032 200.376 25.841 198.264 22.8698C197.959 22.4435 197.371 22.3422 196.939 22.6461C196.512 22.95 196.41 23.5409 196.715 23.9671C198.544 26.5416 198.853 28.3438 198.797 30.9689C198.789 31.429 198.213 32.6022 197.659 33.7418V33.7333Z" fill="#282846"/>
<path id="Vector_16" d="M183.687 8.69765C183.679 9.21677 184.098 9.64726 184.619 9.6557H184.636C185.152 9.6557 185.575 9.24209 185.584 8.72719C185.584 8.53305 185.609 3.92427 179.501 1.83513C179.006 1.66209 178.464 1.92798 178.295 2.42178C178.126 2.91558 178.388 3.4558 178.884 3.62462C183.611 5.24107 183.683 8.53305 183.683 8.69343L183.687 8.69765Z" fill="#282846"/>
<path id="Vector_17" d="M161.124 6.50291C165.653 3.38819 172.035 3.04633 177.389 5.63349C177.859 5.8614 178.431 5.66725 178.659 5.19456C178.888 4.72186 178.689 4.15632 178.219 3.92841C172.26 1.05004 165.128 1.45098 160.045 4.94555C159.613 5.24098 159.503 5.83185 159.803 6.26234C159.985 6.52823 160.286 6.67173 160.586 6.67173C160.773 6.67173 160.959 6.61686 161.124 6.50291Z" fill="#282846"/>
<path id="Vector_18" d="M147.288 20.7553C147.288 14.9986 152.367 8.55386 159.164 8.55386C159.689 8.55386 160.112 8.13182 160.112 7.60848C160.112 7.08514 159.689 6.66309 159.164 6.66309C151.046 6.66309 145.387 14.0911 145.387 20.7553C145.387 21.2786 145.811 21.7007 146.335 21.7007C146.86 21.7007 147.284 21.2786 147.284 20.7553H147.288Z" fill="#282846"/>
<path id="Vector_19" d="M149.137 20.6541C148.744 20.308 148.147 20.346 147.796 20.7343C147.584 20.9706 142.636 26.6176 143.868 30.9943C144.143 31.9734 144.393 32.7415 144.613 33.4253C145.277 35.4764 145.641 36.6075 145.756 40.5072C145.772 41.0221 146.191 41.4273 146.704 41.4273C146.712 41.4273 146.721 41.4273 146.733 41.4273C147.258 41.4104 147.669 40.9757 147.656 40.4524C147.533 36.2868 147.089 34.9193 146.42 32.8471C146.204 32.1844 145.963 31.4374 145.696 30.4878C144.909 27.677 147.973 23.4016 149.222 21.992C149.569 21.5995 149.531 21.0001 149.137 20.6541Z" fill="#282846"/>
<path id="Vector_20" d="M190.21 82.7166C190.73 82.7166 191.154 82.2988 191.158 81.7755L191.314 63.028C191.314 62.5047 190.895 62.0784 190.371 62.0742H190.362C189.842 62.0742 189.418 62.492 189.414 63.0154L189.257 81.7628C189.257 82.2861 189.676 82.7124 190.201 82.7166H190.21Z" fill="#282846"/>
<path id="Vector_21" d="M152.79 82.7166H152.798C153.323 82.7124 153.747 82.2861 153.742 81.7628L153.586 63.0154C153.586 62.4963 153.158 62.0742 152.638 62.0742H152.629C152.104 62.0784 151.681 62.5047 151.685 63.028L151.842 81.7755C151.842 82.2946 152.269 82.7166 152.79 82.7166Z" fill="#282846"/>
<path id="Vector_22" d="M177.681 37.1818C177.863 37.1818 178.045 37.1311 178.206 37.0256C178.392 36.9032 182.794 34.0628 186.925 36.7513C187.365 37.0383 187.954 36.9116 188.237 36.4727C188.525 36.0338 188.398 35.4471 187.958 35.1644C182.76 31.788 177.377 35.2994 177.148 35.4514C176.712 35.7426 176.598 36.3292 176.886 36.7639C177.068 37.0383 177.368 37.186 177.677 37.186L177.681 37.1818Z" fill="#282846"/>
<path id="Vector_23" d="M156.074 36.7474C160.205 34.0631 164.599 36.8951 164.793 37.0217C164.954 37.1272 165.136 37.1821 165.318 37.1821C165.623 37.1821 165.928 37.0344 166.11 36.76C166.402 36.3253 166.283 35.7387 165.847 35.4475C165.619 35.2955 160.235 31.7841 155.037 35.1605C154.597 35.4475 154.474 36.0341 154.758 36.4688C155.046 36.9077 155.634 37.0301 156.07 36.7474H156.074Z" fill="#282846"/>
<path id="Vector_24" d="M171.206 43.3434C170.689 43.2843 170.211 43.6515 170.152 44.1706L168.67 56.6422C168.628 56.9925 168.789 57.3385 169.081 57.5369L170.964 58.8073C171.129 58.917 171.311 58.9719 171.498 58.9719C171.802 58.9719 172.103 58.8242 172.285 58.554C172.577 58.1193 172.467 57.5327 172.031 57.2372L170.626 56.2876L172.039 44.3859C172.103 43.8667 171.731 43.394 171.21 43.335L171.206 43.3434Z" fill="#282846"/>
<path id="Vector_25" d="M164.142 45.5177C164.142 43.9898 163.134 42.749 161.89 42.749C160.646 42.749 159.638 43.9898 159.638 45.5177C159.638 47.0455 160.646 48.2863 161.89 48.2863C163.134 48.2863 164.142 47.0455 164.142 45.5177Z" fill="#282846"/>
<path id="Vector_26" d="M184.293 45.6056C184.293 44.0735 183.285 42.8369 182.041 42.8369C180.797 42.8369 179.789 44.0777 179.789 45.6056C179.789 47.1334 180.797 48.3742 182.041 48.3742C183.285 48.3742 184.293 47.1334 184.293 45.6056Z" fill="#282846"/>
<path id="Vector_27" d="M171.887 73.5329C171.951 73.5329 172.014 73.5329 172.078 73.5329C178.981 73.5329 181.262 64.9696 181.36 64.6024C181.427 64.3407 181.376 64.0579 181.224 63.8343C181.072 63.6106 180.826 63.4628 180.56 63.4249C174.507 62.6652 169.496 62.661 163.27 63.4249C162.999 63.4586 162.753 63.6063 162.597 63.8343C162.444 64.0622 162.394 64.3449 162.466 64.6066C162.559 64.9653 164.878 73.3726 171.891 73.5287L171.887 73.5329ZM179.171 65.1721C178.388 67.2571 176.2 71.7308 171.929 71.6422C167.65 71.5451 165.458 67.2191 164.658 65.1764C169.805 64.615 174.156 64.615 179.171 65.1764V65.1721Z" fill="#282846"/>
</g>
</g>
<g id="Group_4">
<path id="Vector_28" d="M156.828 93.2891L154.208 121.465L186.993 120.473L188.944 93.2891C166.668 101.675 156.828 93.2891 156.828 93.2891Z" fill="#282846"/>
<path id="Vector_29" d="M154.233 122.411L187.018 121.419C187.505 121.402 187.903 121.026 187.937 120.541L189.888 93.3569C189.909 93.0362 189.769 92.7239 189.507 92.5297C189.249 92.3356 188.906 92.2891 188.606 92.4031C167.231 100.452 157.552 92.6606 157.441 92.5677C157.171 92.3398 156.798 92.2807 156.468 92.4115C156.138 92.5466 155.914 92.8505 155.88 93.2008L153.26 121.377C153.234 121.647 153.327 121.917 153.514 122.111C153.691 122.301 153.945 122.411 154.204 122.411C154.212 122.411 154.221 122.411 154.233 122.411ZM157.623 94.9649C161.039 96.9443 170.689 100.772 187.89 94.6822L186.104 119.553L155.249 120.486L157.623 94.9649Z" fill="#282846"/>
</g>
<g id="Group_5">
<path id="Vector_30" d="M198.184 86.8907L190.972 78.5342C184.741 89.9168 178.422 99.7548 171.908 106.398C164.019 98.438 157.475 89.0474 151.99 78.5342L142.958 86.8907C142.958 86.8907 119.615 96.906 115.764 100.991C111.912 105.073 105.864 130.277 105.864 130.277H236.899C236.899 130.277 230.846 105.073 226.999 100.991C223.147 96.906 198.175 86.8907 198.175 86.8907H198.184Z" fill="#FED049"/>
<path id="Vector_31" d="M105.872 131.227C106.3 131.227 106.689 130.936 106.795 130.501C108.463 123.559 113.449 104.841 116.462 101.642C119.031 98.9193 132.11 92.6519 142.53 88.1148C143.013 87.9038 143.229 87.3467 143.021 86.8698C142.81 86.3887 142.251 86.1734 141.773 86.3802C136.389 88.7268 118.557 96.6613 115.082 100.346C111.104 104.562 105.199 129.024 104.95 130.062C104.827 130.573 105.14 131.084 105.652 131.206C105.728 131.223 105.8 131.231 105.872 131.231V131.227Z" fill="#282846"/>
<path id="Vector_32" d="M145.074 86.2282L151.728 80.0705C157.319 90.5669 163.875 99.6409 171.231 107.065C171.409 107.246 171.654 107.348 171.908 107.348C172.162 107.348 172.408 107.242 172.585 107.061C178.35 101.177 184.263 92.618 191.141 80.1887L196.681 86.6123C197.024 87.009 197.625 87.0554 198.019 86.7136C198.417 86.3717 198.463 85.7724 198.12 85.3799L191.683 77.9223C191.479 77.686 191.179 77.5678 190.861 77.5973C190.553 77.6311 190.277 77.8126 190.129 78.0869C183.328 90.5162 177.508 99.1176 171.896 105.043C164.696 97.6278 158.284 88.5664 152.828 78.1038C152.693 77.8421 152.439 77.6564 152.147 77.6058C151.855 77.5551 151.554 77.6437 151.338 77.8463L143.775 84.8439C143.389 85.1984 143.368 85.7977 143.724 86.1818C144.079 86.5659 144.68 86.587 145.066 86.2324L145.074 86.2282Z" fill="#282846"/>
<path id="Vector_33" d="M226.313 101.641C228.848 104.33 232.984 118.376 235.756 129.581C235.862 130.011 236.251 130.303 236.679 130.303C236.755 130.303 236.831 130.294 236.907 130.273C237.415 130.146 237.728 129.636 237.601 129.125C236.162 123.314 231.202 104.055 227.697 100.341C224.447 96.8932 207.622 89.7437 200.541 86.8274C200.059 86.629 199.5 86.8569 199.301 87.3423C199.102 87.8234 199.331 88.3805 199.818 88.5789C211.021 93.1919 223.867 99.0415 226.317 101.637L226.313 101.641Z" fill="#282846"/>
</g>
<path id="Vector_34" d="M187.564 118.266C187.738 118.414 187.958 118.494 188.182 118.494C188.267 118.494 188.352 118.482 188.436 118.461C188.741 118.376 188.982 118.144 189.084 117.844L198.391 89.6811C198.556 89.1831 198.285 88.6471 197.786 88.4867C197.287 88.3221 196.749 88.5922 196.588 89.0903L187.713 115.945C182.871 112.181 175.21 108.209 174.863 108.028C174.397 107.787 173.826 107.969 173.58 108.433C173.339 108.897 173.521 109.467 173.986 109.712C174.075 109.758 183.057 114.413 187.56 118.266H187.564Z" fill="#282846"/>
<path id="Vector_35" d="M155.38 118.456C155.465 118.477 155.55 118.49 155.634 118.49C155.858 118.49 156.079 118.409 156.252 118.262C160.756 114.408 169.737 109.749 169.826 109.707C170.291 109.466 170.473 108.892 170.232 108.428C169.991 107.964 169.419 107.782 168.95 108.023C168.603 108.204 160.942 112.176 156.1 115.94L147.224 89.0854C147.059 88.5874 146.526 88.3172 146.026 88.4818C145.527 88.6464 145.256 89.1824 145.421 89.6762L154.728 117.84C154.826 118.139 155.071 118.371 155.376 118.456H155.38Z" fill="#282846"/>
<g id="Group_6">
<g id="Group_7">
<path id="Vector_36" d="M171.409 33.8855C187.645 33.5647 196.774 44.4114 198.798 41.8116C199.263 41.2165 200.156 39.4818 199.555 37.9498C197.54 32.8092 187.662 25.4572 171.786 26.0143C157.408 26.5165 145.819 33.7462 143.474 38.5069C142.932 39.6085 143.631 42.4235 144.062 42.7485C146.373 44.4662 155.169 34.202 171.405 33.8855H171.409Z" fill="#282846"/>
<path id="Vector_37" d="M149.378 41.014C153.797 38.4817 161.191 34.2485 171.413 34.046C171.654 34.0417 171.887 34.0375 172.124 34.0375C181.647 34.0375 188.551 37.8191 193.156 40.3429C196.211 42.0185 198.057 43.0272 198.929 41.913C199.365 41.3516 200.355 39.541 199.712 37.8951C197.621 32.5646 187.564 25.3011 171.781 25.854C157.2 26.3605 145.705 33.6197 143.33 38.4395C142.75 39.6128 143.474 42.5123 143.969 42.8794C144.181 43.0356 144.426 43.1074 144.718 43.1074C145.717 43.1074 147.216 42.2506 149.378 41.014ZM143.622 38.583C144.841 36.1056 148.511 33.1259 153.192 30.8089C158.783 28.0444 165.39 26.3984 171.794 26.179C172.361 26.1579 172.92 26.1494 173.474 26.1494C188.136 26.1494 197.43 32.9613 199.407 38.0132C199.995 39.5199 199.077 41.1955 198.67 41.7146C197.968 42.6136 196.118 41.5964 193.312 40.0602C188.563 37.4561 181.381 33.5226 171.409 33.7252C161.103 33.9278 153.662 38.1905 149.218 40.7354C146.636 42.2126 144.93 43.1875 144.164 42.622C143.825 42.373 143.102 39.6381 143.622 38.583Z" fill="#282846"/>
</g>
<g id="Group_8">
<path id="Vector_38" d="M199.851 41.175C201.464 35.3592 202.315 0.945312 171.388 0.945312C140.461 0.945312 141.315 35.3592 142.924 41.175C149.412 39.4277 155.173 32.4048 171.409 32.0841C187.645 31.7633 191.124 39.2631 199.851 41.175Z" fill="white"/>
<path id="Vector_39" d="M142.924 42.1244C143.004 42.1244 143.089 42.1117 143.174 42.0906C145.32 41.5124 147.313 40.4277 149.624 39.1743C154.479 36.5322 160.523 33.2487 171.43 33.0334C181.516 32.8351 186.616 35.7683 191.107 38.3597C193.799 39.9128 196.343 41.3774 199.648 42.1033C200.139 42.213 200.634 41.9176 200.766 41.4322C201.777 37.7773 202.7 21.368 194.256 10.3103C189.037 3.47315 181.343 0.00390625 171.388 0.00390625C161.433 0.00390625 153.738 3.47315 148.519 10.3103C140.075 21.368 140.998 37.7773 142.01 41.4322C142.124 41.85 142.509 42.1286 142.924 42.1286V42.1244ZM150.03 11.4541C154.872 5.1107 162.059 1.89468 171.388 1.89468C180.716 1.89468 187.903 5.1107 192.745 11.4541C200.19 21.2076 199.97 35.3125 199.132 40.0226C196.533 39.3009 194.353 38.0432 192.055 36.7179C187.501 34.0928 182.358 31.1258 172.403 31.1258C172.069 31.1258 171.73 31.1258 171.388 31.1342C160.015 31.3579 153.746 34.7681 148.71 37.5072C146.869 38.5074 145.239 39.3937 143.631 39.9593C142.801 35.1901 142.611 21.1612 150.026 11.4499L150.03 11.4541Z" fill="#282846"/>
</g>
<g id="Group_9">
<path id="Vector_40" d="M194.586 39.6133C193.668 44.049 192.584 54.3386 189.951 62.8724C189.951 62.8724 193.977 54.7226 194.882 51.2449C195.792 47.763 196.685 40.757 196.685 40.757L194.586 39.6175V39.6133Z" fill="#282846"/>
<path id="Vector_41" d="M189.947 63.3455C190.125 63.3455 190.29 63.2484 190.375 63.0796C190.54 62.7462 194.429 54.8496 195.339 51.3593C196.245 47.8901 197.117 41.0993 197.151 40.8123C197.176 40.6181 197.079 40.4324 196.905 40.3354L194.806 39.1958C194.675 39.1241 194.514 39.1199 194.379 39.1832C194.243 39.2465 194.146 39.3689 194.112 39.5166C193.841 40.825 193.558 42.644 193.223 44.7458C192.427 49.8019 191.34 56.7278 189.486 62.7293C189.414 62.9656 189.537 63.2189 189.765 63.3075C189.824 63.3286 189.884 63.3413 189.939 63.3413L189.947 63.3455ZM194.167 44.8935C194.446 43.1251 194.692 41.5593 194.92 40.3396L196.165 41.0149C195.979 42.4245 195.196 48.1348 194.417 51.1229C193.989 52.7563 192.851 55.4658 191.78 57.8504C192.855 53.2501 193.587 48.578 194.167 44.8935Z" fill="#282846"/>
</g>
<g id="Group_10">
<path id="Vector_42" d="M148.473 39.6136L146.373 40.7531C146.373 40.7531 147.266 47.7591 148.176 51.241C149.086 54.7229 153.107 62.8685 153.107 62.8685C150.475 54.3347 149.391 44.0493 148.473 39.6094V39.6136Z" fill="#282846"/>
<path id="Vector_43" d="M153.112 63.3455C153.171 63.3455 153.23 63.3328 153.285 63.3117C153.514 63.2189 153.636 62.9699 153.564 62.7335C151.711 56.7278 150.623 49.8019 149.827 44.7416C149.497 42.6398 149.213 40.825 148.943 39.5166C148.913 39.3689 148.816 39.2465 148.676 39.1832C148.54 39.1199 148.38 39.1241 148.248 39.1958L146.149 40.3354C145.976 40.4282 145.882 40.6181 145.904 40.8123C145.942 41.0993 146.809 47.8901 147.715 51.3593C148.625 54.8454 152.515 62.742 152.68 63.0796C152.76 63.2442 152.93 63.3455 153.107 63.3455H153.112ZM148.638 51.1229C147.859 48.1348 147.076 42.4245 146.89 41.0149L148.134 40.3396C148.363 41.5593 148.608 43.1209 148.888 44.8893C149.467 48.5738 150.2 53.2459 151.275 57.8504C150.204 55.4658 149.061 52.7563 148.638 51.1229Z" fill="#282846"/>
</g>
<g id="Group_11">
<path id="Vector_44" d="M171.193 79.0239C167.269 79.0535 162.423 79.4333 162.423 79.4333C162.423 79.4333 166.491 83.5567 172.344 83.5567C176.513 83.5567 181.415 78.5977 181.415 78.5977C181.415 78.5977 174.685 78.9986 171.193 79.0239Z" fill="#282846"/>
<path id="Vector_45" d="M181.753 78.9267C181.893 78.7874 181.931 78.5764 181.846 78.3991C181.766 78.2219 181.58 78.1121 181.385 78.1206C181.317 78.1206 174.63 78.5215 171.189 78.5468C167.291 78.5764 162.436 78.952 162.385 78.9562C162.203 78.9689 162.042 79.0913 161.979 79.2643C161.915 79.4374 161.958 79.6315 162.085 79.7623C162.258 79.9354 166.364 84.0293 172.344 84.0293C176.661 84.0293 181.546 79.1377 181.753 78.9267ZM171.197 79.4964C173.724 79.4796 177.978 79.2601 180.124 79.1419C178.528 80.5305 175.214 83.0796 172.344 83.0796C168.268 83.0796 165.047 80.9694 163.6 79.8172C165.267 79.7033 168.471 79.5133 171.201 79.4922L171.197 79.4964Z" fill="#282846"/>
</g>
<path id="Vector_46" d="M145.413 31.9193C145.506 31.8349 155.097 23.4699 172.01 23.4699C188.923 23.4699 197.65 30.9022 197.735 30.9781C198.129 31.3242 198.726 31.2904 199.077 30.9022C199.424 30.5139 199.394 29.9146 199.001 29.5685C198.637 29.2435 189.841 21.5791 172.014 21.5791C154.187 21.5791 144.562 30.1467 144.151 30.5097C143.762 30.86 143.728 31.455 144.075 31.8475C144.261 32.0586 144.524 32.1641 144.782 32.1641C145.006 32.1641 145.235 32.0839 145.413 31.9235V31.9193Z" fill="#007580"/>
<path id="Vector_47" d="M145.413 35.7933C145.506 35.7089 155.097 27.3439 172.01 27.3439C188.923 27.3439 197.65 34.7762 197.735 34.8522C198.129 35.1982 198.726 35.1645 199.077 34.7762C199.424 34.3879 199.394 33.7886 199.001 33.4425C198.637 33.1175 189.841 25.4531 172.014 25.4531C154.187 25.4531 144.562 34.0207 144.151 34.3837C143.762 34.7298 143.728 35.3291 144.075 35.7216C144.261 35.9326 144.524 36.0381 144.782 36.0381C145.006 36.0381 145.235 35.9579 145.413 35.7975V35.7933Z" fill="#007580"/>
</g>
<g id="Group_12">
<path id="Vector_48" d="M227.638 57.7017C222.661 57.2881 223.642 80.6823 221.721 81.8091C219.804 82.936 217.133 86.2533 216.913 89.5706C216.693 92.8879 220.968 99.8602 220.968 99.8602L221.001 106.14C226.444 107.875 231.202 108.495 234.334 106.398L234.393 100.151C234.393 100.151 241.44 89.2119 239.565 85.6287C236.433 79.6482 228.535 79.4414 228.535 79.4414C228.535 79.4414 229.987 57.8959 227.638 57.7017Z" fill="white"/>
<g id="Group_13">
<path id="Vector_49" d="M222.157 82.7595C222.631 82.5401 222.838 81.9745 222.614 81.5018C222.394 81.0291 221.827 80.8223 221.353 81.0418C220.9 81.2528 216.887 83.1858 216.21 86.0346C215.651 88.377 216.54 96.0288 220.019 100.211L220.032 102.41C220.032 102.929 220.46 103.351 220.98 103.351H220.984C221.509 103.351 221.933 102.921 221.928 102.397L221.916 99.8525C221.916 99.6204 221.827 99.4009 221.674 99.2279C218.343 95.5054 217.662 88.1322 218.056 86.4736C218.449 84.8107 221.145 83.2322 222.153 82.7638L222.157 82.7595Z" fill="#282846"/>
<path id="Vector_50" d="M228.006 56.8285C227.249 56.5119 226.499 56.5584 225.839 56.9635C223.401 58.4618 222.771 64.8052 222.199 72.9423C222.034 75.3227 221.89 77.378 221.674 78.3783C221.564 78.889 221.894 79.3912 222.407 79.5009C222.919 79.6107 223.422 79.2815 223.532 78.7708C223.774 77.6397 223.913 75.6265 224.091 73.0731C224.417 68.3926 225.031 59.6815 226.834 58.5758C226.885 58.5462 226.935 58.5209 227.007 58.5167C227.524 60.475 227.519 70.6168 227.206 79.7879C227.194 80.1298 227.367 80.4506 227.663 80.632C227.955 80.8093 228.324 80.8135 228.624 80.6447C230.482 79.598 236.353 82.4131 238.77 86.1482C240.331 88.5623 236.442 95.6823 233.623 99.6031C233.5 99.772 233.441 99.9745 233.445 100.181L233.551 103.819C233.568 104.334 233.987 104.739 234.499 104.739C234.507 104.739 234.516 104.739 234.529 104.739C235.053 104.723 235.464 104.288 235.451 103.765L235.354 100.443C236.734 98.4763 242.985 89.1659 240.365 85.1184C238.088 81.5985 232.628 78.2475 229.149 78.5682C229.822 57.5966 228.645 57.0986 228.006 56.8327V56.8285Z" fill="#282846"/>
<path id="Vector_51" d="M223.515 86.2997C223.266 86.1942 222.978 86.2026 222.732 86.325C222.487 86.4474 222.305 86.6669 222.233 86.9286L221.801 88.5366C221.666 89.043 221.966 89.5621 222.474 89.6972C222.555 89.7183 222.639 89.731 222.72 89.731C223.139 89.731 223.524 89.4524 223.638 89.0261L223.82 88.3551C225.526 88.6801 227.287 88.1736 228.425 87.4224C229.267 86.8652 229.737 86.19 229.737 85.5274C229.737 85.1433 229.598 84.5187 228.357 83.5057C226.863 82.2902 223.702 80.5261 221.56 80.9692C221.048 81.0747 220.718 81.577 220.824 82.0877C220.929 82.5983 221.429 82.9275 221.945 82.822C223.613 82.4759 227.037 84.62 227.761 85.5316C227.282 86.0465 225.327 87.0467 223.515 86.2955V86.2997Z" fill="#282846"/>
<path id="Vector_52" d="M226.948 83.6999C227.397 83.6999 227.795 83.3834 227.879 82.9276C228.192 81.2858 229.217 80.1041 229.246 80.0703C229.593 79.682 229.56 79.0827 229.17 78.7366C228.781 78.3863 228.18 78.4201 227.828 78.8084C227.773 78.8717 226.427 80.3869 226.013 82.5773C225.915 83.0922 226.254 83.586 226.77 83.6831C226.83 83.6957 226.889 83.6999 226.948 83.6999Z" fill="#282846"/>
<path id="Vector_53" d="M233.593 81.5517C233.974 81.1929 233.995 80.5936 233.64 80.2138C233.28 79.8297 232.679 79.8128 232.298 80.1674C231.062 81.3195 227.888 85.3965 228.578 88.334C228.772 89.1697 229.369 90.2754 231.087 90.7903C231.181 90.8156 231.269 90.8325 231.363 90.8325C231.769 90.8325 232.146 90.5666 232.273 90.1572C232.425 89.655 232.137 89.1275 231.638 88.9797C230.715 88.7012 230.508 88.2327 230.431 87.9035C230.025 86.1773 232.251 82.8094 233.602 81.5517H233.593Z" fill="#282846"/>
<path id="Vector_54" d="M237.495 82.6327C237.131 82.2529 236.53 82.2445 236.154 82.6032C235.176 83.5402 232.455 86.887 232.785 89.892C232.924 91.1539 233.602 92.1879 234.749 92.8801C234.901 92.9729 235.07 93.0151 235.24 93.0151C235.561 93.0151 235.874 92.8548 236.052 92.5593C236.323 92.112 236.179 91.5295 235.731 91.2594C235.083 90.8669 234.744 90.3689 234.672 89.6852C234.461 87.7649 236.42 84.9709 237.466 83.9706C237.847 83.6077 237.855 83.0084 237.495 82.6327Z" fill="#282846"/>
</g>
</g>
<g id="Group_14">
<path id="Vector_55" d="M236.683 108.847C236.683 108.847 236.683 105.449 235.819 104.694C234.956 103.938 219.791 104.85 219.791 105.647V110.045C219.791 110.045 217.903 124.332 218.373 131.122H238.418C238.575 121.555 236.683 108.847 236.683 108.847Z" fill="#FED049"/>
<path id="Vector_56" d="M238.401 132C238.401 132 238.41 132 238.418 132C238.901 132 239.294 131.616 239.303 131.131C239.455 121.951 237.716 109.775 237.567 108.775C237.567 107.597 237.436 104.926 236.403 104.022C236.145 103.794 235.536 103.263 228.167 103.659C226.973 103.723 220.959 104.073 219.596 104.689C218.974 104.972 218.906 105.453 218.906 105.643V109.986C218.758 111.121 217.027 124.53 217.488 131.181C217.522 131.645 217.907 132.004 218.369 132.004C218.39 132.004 218.411 132.004 218.432 132.004C218.919 131.97 219.287 131.548 219.253 131.063C218.796 124.441 220.646 110.307 220.667 110.163C220.671 110.125 220.675 110.087 220.675 110.049V106.187C223.037 105.597 233.635 105.018 235.286 105.424C235.557 105.854 235.798 107.411 235.798 108.846C235.798 108.889 235.798 108.931 235.807 108.977C235.824 109.104 237.686 121.723 237.534 131.109C237.525 131.595 237.915 132 238.406 132.008L238.401 132Z" fill="#282846"/>
</g>
<path id="Vector_57" d="M222.669 109.923L233.771 109.142C234.258 109.108 234.626 108.686 234.592 108.201C234.558 107.715 234.135 107.348 233.648 107.382L222.546 108.163C222.059 108.197 221.691 108.619 221.725 109.104C221.759 109.568 222.148 109.923 222.605 109.923C222.627 109.923 222.648 109.923 222.669 109.923Z" fill="#282846"/>
</g>
<g id="Group_15">
<path id="Vector_58" d="M45.3727 28.2606L45.051 28.5222L44.7462 28.2395C44.6574 28.1551 44.5727 28.1129 44.4838 28.1002C44.2341 28.0749 43.9886 28.058 43.7389 28.058C37.1827 28.058 36.5182 37.7356 34.0464 47.0038C33.1576 50.3295 32.3661 53.689 31.837 57.0949C31.3291 60.3785 31.0244 63.7633 31.4307 67.0806C31.7609 69.7902 32.637 72.5926 34.6771 74.5171C35.2104 75.0194 35.8114 75.4499 36.4547 75.7959C36.7341 75.9436 37.0219 76.0829 37.3139 76.1969C37.4197 76.2349 37.5129 76.3024 37.6187 76.3446C37.7203 76.3826 37.8303 76.4375 37.9361 76.4585C38.2789 76.5134 38.6429 76.6189 38.9731 76.7455C39.4471 76.9228 39.9593 76.9945 40.3233 77.3364C40.573 77.5728 40.937 77.9315 41.1359 78.2143C41.2544 78.3831 41.1528 78.7376 41.2459 78.9191C41.4279 79.2821 41.8343 79.4678 42.0671 79.797C42.2914 80.1135 42.5623 80.4005 42.8162 80.6917C42.9432 80.8394 43.104 80.9956 43.1887 81.1686C43.2691 81.3374 43.4172 81.4767 43.5146 81.6413C43.5527 81.7046 43.595 81.7342 43.6458 81.7848C43.705 81.8439 43.7474 81.9283 43.8066 81.9958C44.0309 82.2575 44.251 82.5318 44.505 82.764C44.6023 82.8526 44.6701 82.9581 44.742 83.0678C44.8521 83.2409 44.9875 83.4266 45.1695 83.5321C45.3388 83.6292 45.4658 83.7769 45.6054 83.9077C45.9187 84.1989 46.2403 84.4817 46.5705 84.7476C47.2307 85.2836 47.9291 85.7689 48.6571 86.2079C49.3893 86.6468 50.1512 87.0351 50.9384 87.3685C51.476 87.5964 52.0262 87.8032 52.5849 87.9805L52.8812 88.0776L52.9108 88.3856C53.0124 89.4323 53.0716 92.1081 51.4167 94.3703C49.948 96.375 47.4678 97.6074 44.069 98.0506C46.4689 102.524 55.5392 112.983 59.7421 114.658C66.4252 117.22 71.4746 111.632 75.8214 105.462C74.6363 103.162 73.7433 100.726 73.0068 98.2405C71.0048 97.6876 69.4219 96.7042 68.2918 95.2946C66.2263 92.7159 66.2475 89.3986 66.3067 88.4447L66.3279 88.1113L66.6453 88.0185C70.0017 87.0224 72.8968 85.2794 75.25 82.8315C76.7653 81.2572 78.0858 79.3665 79.1778 77.2098L79.3768 76.8173L79.7831 76.9819C80.0201 77.079 80.2656 77.1254 80.528 77.1254C80.7904 77.1254 81.0486 77.079 81.2856 76.9777L81.802 76.7624L81.9332 77.3027L81.9501 77.3955C82.0306 77.5559 82.1914 77.6572 82.3734 77.6572C82.4496 77.6572 82.5173 77.6403 82.585 77.6065C86.3943 75.7031 89.501 66.4644 88.1212 58.2978C86.3943 48.0926 88.0831 42.2937 82.3734 33.5531C76.8669 25.1247 70.7932 21.377 60.0553 21.377C58.5654 21.377 57.0925 21.4825 55.6873 21.6935C50.6252 22.4447 47.1672 24.3819 46.4435 26.8762C46.4096 26.9944 46.4223 27.121 46.4816 27.2308L46.7906 27.8048L46.1472 27.9187C45.8509 27.9694 45.5885 28.0875 45.3769 28.2606H45.3727Z" fill="white"/>
<g id="Group_16">
<path id="Vector_59" d="M77.1378 68.3761C77.1378 66.0549 75.2501 64.1768 72.9264 64.1768C70.6028 64.1768 68.7151 66.0549 68.7151 68.3761C68.7151 70.6974 70.6028 72.5755 72.9264 72.5755C75.2501 72.5755 77.1378 70.6932 77.1378 68.3761Z" fill="#FFF7DE"/>
<path id="Vector_60" d="M48.4408 72.0036C50.4483 70.8325 51.1236 68.2602 49.9491 66.2584C48.7745 64.2566 46.195 63.5832 44.1874 64.7544C42.1799 65.9256 41.5046 68.4978 42.6791 70.4996C43.8537 72.5014 46.4332 73.1748 48.4408 72.0036Z" fill="#FFF7DE"/>
<path id="Vector_61" d="M81.1925 71.3136L79.2032 77.9735C79.2032 77.9735 83.0505 78.4969 85.9625 73.6644C88.8745 68.832 88.8957 60.0196 83.5754 42.7283C78.2551 25.4411 66.1543 21.533 59.45 21.8537C46.8878 22.453 46.3122 29.8136 46.3122 29.8136C40.3698 32.6371 32.0994 48.3457 31.473 57.0357C29.9154 78.6108 42.1009 78.6108 42.1009 78.6108C42.1009 78.6108 40.0227 72.2886 39.0111 71.0857C37.8514 69.7098 34.8548 68.4226 34.2241 66.4854C33.0433 62.86 34.5331 59.2135 37.6186 61.5263L38.0419 57.2425C38.0419 57.2425 38.5159 44.2054 47.3026 40.1453C47.3026 40.1453 51.4632 44.6739 67.4071 42.7283C67.4071 42.7283 84.2695 49.4135 82.3649 58.9982V61.2689C82.3649 61.2689 84.6124 59.8001 85.2218 61.2689C85.8313 62.7376 86.7963 68.4901 81.1925 71.3136Z" fill="#007580"/>
<g id="Group_17">
<path id="Vector_62" d="M59.4204 87.5923C54.0282 87.5923 49.5671 85.8661 46.1557 82.4644C38.6387 74.9603 38.571 61.6658 38.571 61.535C38.571 61.0116 38.1477 60.5896 37.6229 60.5854C37.0981 60.5854 36.6748 61.0074 36.6748 61.5307C36.6748 62.1089 36.7341 75.7285 44.8097 83.798C48.5894 87.5754 53.5076 89.4915 59.4246 89.4915C66.1162 89.4915 71.5593 87.3601 75.5971 83.1607C83.8294 74.5974 83.3342 60.5769 83.313 59.986C83.2918 59.4627 82.8517 59.0618 82.3268 59.0786C81.802 59.0997 81.3957 59.5429 81.4168 60.062C81.4211 60.2013 81.8951 73.8841 74.2215 81.8524C70.5562 85.6635 65.5745 87.5923 59.4246 87.5923H59.4204Z" fill="#282846"/>
<path id="Vector_63" d="M38.499 54.5161C38.9646 54.5161 39.3709 54.1742 39.4387 53.7015C40.0989 49.0252 42.5919 44.5557 45.9398 42.0445C46.3588 41.728 46.4435 41.1371 46.126 40.7193C45.8086 40.3015 45.216 40.2171 44.797 40.5336C41.0597 43.336 38.2832 48.2824 37.5552 53.4398C37.4832 53.959 37.843 54.4359 38.3636 54.5119C38.4101 54.5203 38.4525 54.5203 38.499 54.5203V54.5161Z" fill="#282846"/>
<path id="Vector_64" d="M81.9417 76.3362C81.4719 76.5726 81.2814 77.1381 81.5184 77.6066C81.6835 77.94 82.0221 78.1299 82.3692 78.1299C82.5131 78.1299 82.657 78.0962 82.7924 78.0286C85.5605 76.6443 87.4651 74.0951 88.4556 70.4529C90.9485 61.2649 87.1265 45.9698 79.3641 34.0891C71.9699 22.7698 61.7737 19.8576 54.6927 20.9043C50.1724 21.5754 46.8329 23.8122 45.9822 26.7413C45.834 27.2435 46.1261 27.7668 46.6297 27.9146C47.1292 28.0581 47.6582 27.7711 47.8064 27.2688C48.4413 25.0911 51.2517 23.3269 54.972 22.7782C61.4647 21.816 70.8652 24.5551 77.7727 35.1232C85.1457 46.4087 88.9508 61.383 86.6229 69.9591C85.7806 73.0611 84.2061 75.2051 81.9459 76.3362H81.9417Z" fill="#282846"/>
<path id="Vector_65" d="M80.7947 70.4525C80.3164 70.672 80.109 71.2333 80.3291 71.7103C80.4899 72.0563 80.8328 72.2589 81.1925 72.2589C81.3237 72.2589 81.4592 72.2294 81.5904 72.1703C84.168 70.9843 85.9626 68.8614 86.6398 66.1941C87.1731 64.0965 86.9149 61.9356 85.9837 60.6948C85.6705 60.277 85.0737 60.1925 84.6547 60.5049C84.2357 60.8172 84.151 61.4123 84.4643 61.8301C84.9552 62.4843 85.2303 64.0332 84.7986 65.7298C84.4897 66.9453 83.5585 69.178 80.7947 70.4483V70.4525Z" fill="#282846"/>
<path id="Vector_66" d="M35.3162 61.4418C35.7734 61.6951 36.3532 61.5347 36.6072 61.0789C36.8653 60.6231 36.7003 60.0448 36.2432 59.7916C35.0792 59.1417 33.8052 59.5088 33.0772 60.7032C31.6593 63.0287 32.417 68.0342 37.5214 71.3811C37.6822 71.4866 37.8642 71.5372 38.042 71.5372C38.351 71.5372 38.6557 71.3853 38.8377 71.111C39.1255 70.672 39.0028 70.0854 38.5668 69.7984C34.1735 66.92 33.8814 63.033 34.7025 61.6866C34.9692 61.2477 35.1554 61.3532 35.3162 61.4418Z" fill="#282846"/>
<path id="Vector_67" d="M44.5389 29.5184C45.0087 29.4677 45.3769 29.071 45.3811 28.5899C45.3854 28.0665 44.9663 27.6403 44.4415 27.6318H44.433C41.3518 27.6318 34.0253 43.0493 31.5662 54.7147C28.9632 67.0554 31.2318 75.125 38.1266 78.0582C38.2493 78.1089 38.3763 78.1342 38.499 78.1342C38.8673 78.1342 39.2186 77.919 39.3752 77.556C39.5826 77.0749 39.3582 76.5178 38.8757 76.3152C34.6474 74.5172 32.4804 70.3516 32.4296 63.928C32.3196 49.9034 42.3718 30.6495 44.5473 29.5184H44.5389Z" fill="#282846"/>
<path id="Vector_68" d="M53.3468 63.0461C53.3468 61.6702 52.441 60.5518 51.3194 60.5518C50.1978 60.5518 49.292 61.6702 49.292 63.0461C49.292 64.4219 50.1978 65.5404 51.3194 65.5404C52.441 65.5404 53.3468 64.4262 53.3468 63.0461Z" fill="#282846"/>
<path id="Vector_69" d="M69.4345 63.1261C69.4345 61.7503 68.5288 60.6318 67.4071 60.6318C66.2855 60.6318 65.3798 61.7503 65.3798 63.1261C65.3798 64.502 66.2855 65.6205 67.4071 65.6205C68.5288 65.6205 69.4345 64.502 69.4345 63.1261Z" fill="#282846"/>
<path id="Vector_70" d="M59.5982 65.5279C59.0818 65.4477 58.5951 65.8023 58.5147 66.3172C58.4808 66.524 58.2099 68.3725 58.5316 69.6556C58.6416 70.086 59.0268 70.373 59.4501 70.373C59.5262 70.373 59.6024 70.3646 59.6828 70.3435C60.1907 70.2169 60.4997 69.702 60.3727 69.1955C60.1781 68.4232 60.3177 67.0642 60.3897 66.6084C60.4701 66.0935 60.1146 65.6081 59.594 65.5279H59.5982Z" fill="#282846"/>
<path id="Vector_71" d="M48.691 52.8156C50.9131 52.0095 51.8527 52.8156 51.9204 52.8747C52.1067 53.0604 52.3522 53.1575 52.5976 53.1575C52.8431 53.1575 53.0632 53.073 53.2494 52.9C53.6304 52.5413 53.6515 51.942 53.2918 51.5621C53.2241 51.4861 51.5437 49.7642 48.0434 51.0388C47.5525 51.216 47.2985 51.7605 47.4763 52.2543C47.654 52.7439 48.2 53.0013 48.6953 52.8198L48.691 52.8156Z" fill="#282846"/>
<path id="Vector_72" d="M66.4083 52.9756C66.5649 52.9756 66.7215 52.9376 66.8654 52.8574C66.8908 52.8448 69.2314 51.5786 70.7509 52.6886C71.1741 52.9967 71.7667 52.9038 72.0799 52.486C72.3889 52.064 72.3 51.4731 71.8768 51.1608C69.3669 49.3249 66.0824 51.127 65.9427 51.203C65.4856 51.4562 65.3248 52.0344 65.5788 52.4902C65.7523 52.8026 66.0782 52.9756 66.4083 52.9756Z" fill="#282846"/>
<path id="Vector_73" d="M50.5659 93.8684C50.6844 93.9191 50.8072 93.9402 50.9299 93.9402C51.3024 93.9402 51.6537 93.7207 51.806 93.3578C53.0081 90.4709 52.4579 87.7023 52.4325 87.5841C52.3266 87.0735 51.8314 86.7443 51.3151 86.8498C50.8029 86.9553 50.4686 87.4533 50.5744 87.964C50.5786 87.9851 51.023 90.3021 50.0538 92.6318C49.8506 93.113 50.0834 93.6701 50.5659 93.8684Z" fill="#282846"/>
<path id="Vector_74" d="M67.6019 87.1066C67.0855 87.0391 66.6072 87.4063 66.5353 87.9212C66.5099 88.1322 65.9004 93.1124 69.2568 96.7083C69.443 96.9066 69.697 97.0079 69.9509 97.0079C70.1837 97.0079 70.4165 96.9235 70.5985 96.7547C70.9837 96.4002 71.0048 95.8008 70.6451 95.4168C67.9151 92.4962 68.4061 88.2377 68.4145 88.166C68.4823 87.6469 68.114 87.1742 67.5977 87.1066H67.6019Z" fill="#282846"/>
<path id="Vector_75" d="M59.7252 83.7684C59.7844 83.7684 59.8395 83.7684 59.8987 83.7684C66.2517 83.7684 68.3511 75.9056 68.4357 75.568C68.5034 75.3063 68.4526 75.0235 68.3003 74.7998C68.1479 74.5762 67.9024 74.4284 67.6358 74.3904C62.1123 73.6941 57.5412 73.6941 51.8611 74.3904C51.5903 74.4242 51.3448 74.5719 51.1882 74.7998C51.0358 75.0277 50.985 75.3105 51.057 75.5722C51.1459 75.9014 53.2706 83.6207 59.7252 83.7642V83.7684ZM66.2475 76.1377C65.5195 78.037 63.5852 81.8776 59.8903 81.8776C59.8522 81.8776 59.8098 81.8776 59.7717 81.8776C55.9921 81.7932 54.0155 78.0243 53.2663 76.142C57.8629 75.6482 61.7737 75.6482 66.2517 76.142L66.2475 76.1377Z" fill="#282846"/>
</g>
</g>
<g id="Group_18">
<g id="Group_19">
<path id="Vector_76" d="M59.6745 51.0085C75.9104 50.6878 85.04 61.5344 87.0631 58.9346C87.5287 58.3395 88.4218 56.6049 87.8208 55.0729C85.8061 49.9323 75.9274 42.5802 60.0512 43.1373C45.6733 43.6395 34.0846 50.865 31.7398 55.63C31.198 56.7315 31.8964 59.5466 32.3281 59.8715C34.6391 61.5893 43.4343 51.3251 59.6702 51.0085H59.6745Z" fill="#282846"/>
<path id="Vector_77" d="M37.6441 58.1374C42.0629 55.6051 49.4571 51.3719 59.6787 51.1693C59.9199 51.1651 60.1569 51.1609 60.3897 51.1609C69.9129 51.1609 76.8161 54.9424 81.4211 57.4621C84.477 59.1376 86.3224 60.1463 87.1943 59.0321C87.6303 58.4708 88.6207 56.6602 87.9773 55.0142C85.8865 49.6837 75.8427 42.4203 60.0469 42.9731C45.4658 43.4838 33.9703 50.7388 31.5959 55.5586C31.016 56.7319 31.7398 59.6314 32.235 59.9986C32.4466 60.1547 32.6963 60.2265 32.9841 60.2265C33.983 60.2265 35.4813 59.3697 37.6441 58.1289V58.1374ZM31.8879 55.7064C33.1069 53.2289 36.7765 50.2493 41.4576 47.9322C47.0488 45.1678 53.6558 43.526 60.0596 43.3023C75.6945 42.7706 85.6198 49.8947 87.6726 55.1366C88.2609 56.6433 87.3424 58.3188 86.9361 58.838C86.2335 59.7369 84.3839 58.7198 81.5777 57.1835C76.8288 54.5837 69.642 50.6502 59.6744 50.8486C49.3682 51.0512 41.9317 55.3138 37.4833 57.8588C34.9015 59.336 33.1957 60.3151 32.4297 59.7454C32.0911 59.4963 31.3673 56.7615 31.8879 55.7064Z" fill="#282846"/>
</g>
<g id="Group_20">
<path id="Vector_78" d="M88.1171 58.2971C89.7297 52.4812 91.3296 18.0674 59.6533 18.0674C27.9771 18.0674 29.5813 52.4812 31.1896 58.2971C37.6781 56.5498 43.4385 49.5227 59.6745 49.2061C75.9105 48.8854 79.3896 56.3852 88.1171 58.2971Z" fill="white"/>
<path id="Vector_79" d="M31.1896 59.2471C31.27 59.2471 31.3546 59.2345 31.4393 59.2134C33.5852 58.6351 35.5787 57.5505 37.8896 56.297C42.7444 53.655 48.7884 50.3714 59.6956 50.1562C69.7944 49.9578 74.8819 52.8953 79.3726 55.4824C82.0645 57.0356 84.6083 58.5001 87.9139 59.226C88.4048 59.3357 88.9 59.0403 89.0312 58.555C90.2333 54.2247 91.0375 38.1531 82.8391 27.4162C77.6288 20.5917 69.8283 17.1309 59.6533 17.1309C49.4783 17.1309 42.0375 20.6001 36.8146 27.4373C28.3538 38.5203 29.2638 54.9085 30.2753 58.5592C30.3896 58.977 30.7748 59.2556 31.1896 59.2556V59.2471ZM38.3256 28.5768C43.1676 22.2334 50.346 19.0174 59.6533 19.0174C68.9606 19.0174 76.4987 22.2292 81.3281 28.5557C88.6207 38.1109 88.2694 52.3719 87.4017 57.1453C84.803 56.4236 82.619 55.1659 80.3249 53.8407C75.7707 51.2155 70.6282 48.2485 60.6733 48.2485C60.339 48.2485 60.0004 48.2485 59.6575 48.257C48.2847 48.4806 42.0164 51.8908 36.9797 54.6299C35.1385 55.6302 33.509 56.5165 31.9006 57.082C31.0753 52.3171 30.8975 38.305 38.3298 28.5726L38.3256 28.5768Z" fill="#282846"/>
</g>
<g id="Group_21">
<path id="Vector_80" d="M82.4709 56.7363C81.5524 61.1721 80.0922 71.2717 77.4553 79.8055C77.4553 79.8055 81.8571 71.8457 82.7671 68.368C83.6771 64.8861 84.5702 57.8801 84.5702 57.8801L82.4709 56.7406V56.7363Z" fill="#282846"/>
<path id="Vector_81" d="M77.4553 80.2783C77.6246 80.2783 77.7854 80.1897 77.8701 80.0335C78.0521 79.7043 82.3142 71.9808 83.2242 68.4862C84.13 65.017 85.0019 58.2262 85.0357 57.9392C85.0611 57.7451 84.9638 57.5594 84.7902 57.4623L82.6909 56.3228C82.5597 56.2511 82.3989 56.2468 82.2634 56.3101C82.128 56.3734 82.0306 56.4958 81.9968 56.6436C81.7682 57.7451 81.51 59.1927 81.2053 60.8767C80.2614 66.1101 78.9705 73.2723 76.9939 79.6705C76.922 79.9027 77.0405 80.1517 77.2606 80.2445C77.3198 80.2699 77.3833 80.2825 77.4468 80.2825L77.4553 80.2783ZM82.1491 61.0413C82.3989 59.6697 82.6147 58.4541 82.8094 57.4623L84.058 58.1418C83.8718 59.5515 83.0888 65.2618 82.31 68.2499C81.8402 70.0521 80.3884 73.1288 79.1271 75.6189C80.4561 70.4277 81.4085 65.1436 82.1491 61.0413Z" fill="#282846"/>
</g>
<g id="Group_22">
<path id="Vector_82" d="M37.5003 56.7357L35.401 57.8752C35.401 57.8752 36.2941 64.8812 37.2041 68.3631C38.1141 71.845 42.5159 79.9906 42.5159 79.9906C39.8832 71.4567 38.4188 61.1714 37.5003 56.7314V56.7357Z" fill="#282846"/>
<path id="Vector_83" d="M42.5158 80.4679C42.5793 80.4679 42.6386 80.4552 42.6978 80.4299C42.9222 80.337 43.0407 80.088 42.9687 79.8517C41.0048 73.4956 39.7181 66.2701 38.7743 60.9945C38.4611 59.2515 38.1944 57.7574 37.9659 56.6348C37.9362 56.4871 37.8389 56.3647 37.6992 56.3013C37.5638 56.238 37.4029 56.2423 37.2717 56.314L35.1724 57.4535C34.9989 57.5464 34.9058 57.7363 34.9269 57.9305C34.965 58.2175 35.8369 65.0082 36.7384 68.4775C37.6527 71.972 41.9106 79.877 42.0926 80.2104C42.1772 80.3666 42.3423 80.4594 42.5116 80.4594L42.5158 80.4679ZM37.6654 68.2453C36.8866 65.2572 36.1036 59.5469 35.9173 58.1373L37.1659 57.4578C37.3649 58.4791 37.5892 59.7368 37.8431 61.1634C38.5754 65.253 39.5107 70.5075 40.8101 75.6438C39.5573 73.1158 38.1309 70.0306 37.6654 68.2453Z" fill="#282846"/>
</g>
<g id="Group_23">
<path id="Vector_84" d="M69.2654 86.8115C69.2654 86.8115 63.2807 87.778 59.7888 87.7696C55.8653 87.7611 50.837 87.0732 50.837 87.0732C50.837 87.0732 53.9606 90.5931 59.628 90.6395C65.38 90.6859 69.2654 86.8115 69.2654 86.8115Z" fill="#282846"/>
<path id="Vector_85" d="M59.6279 91.1121C59.666 91.1121 59.7041 91.1121 59.738 91.1121C65.5577 91.1121 69.4389 87.3052 69.604 87.1449C69.7479 87.0014 69.786 86.7777 69.6887 86.5962C69.5955 86.4147 69.3966 86.3134 69.1892 86.343C69.13 86.3514 63.2552 87.2968 59.8396 87.2968H59.793C55.9457 87.2841 50.9513 86.6131 50.9005 86.6046C50.7058 86.5793 50.5111 86.6764 50.418 86.8494C50.3249 87.0225 50.3502 87.2377 50.4815 87.3854C50.6127 87.5331 53.8125 91.0615 59.6237 91.1121H59.6279ZM59.793 88.2422C62.1548 88.2549 65.5662 87.8244 67.6147 87.5374C66.0529 88.6389 63.1917 90.2427 59.6364 90.1667C56.1488 90.1372 53.6474 88.7275 52.3099 87.7315C54.1172 87.9383 57.2027 88.238 59.7888 88.2422H59.793Z" fill="#282846"/>
</g>
<path id="Vector_86" d="M33.636 48.9957C33.7291 48.9113 43.3369 40.5294 60.2755 40.5294C77.2141 40.5294 85.9542 47.9786 86.0389 48.0504C86.4029 48.3753 86.9658 48.3416 87.2917 47.9786C87.6176 47.6156 87.588 47.0585 87.2198 46.7293C86.8558 46.4044 78.0775 38.7568 60.2713 38.7568C42.465 38.7568 32.8614 47.3075 32.4509 47.6705C32.0869 47.9955 32.053 48.5568 32.3789 48.9198C32.5525 49.1139 32.7979 49.2152 33.0392 49.2152C33.2508 49.2152 33.4624 49.1392 33.6275 48.9915L33.636 48.9957Z" fill="#007580"/>
<path id="Vector_87" d="M33.636 52.8698C33.7291 52.7854 43.3369 44.4035 60.2755 44.4035C77.2141 44.4035 85.9542 51.8526 86.0389 51.9244C86.4029 52.2494 86.9658 52.2156 87.2917 51.8526C87.6176 51.4897 87.588 50.9326 87.2198 50.6034C86.8558 50.2784 78.0775 42.6309 60.2713 42.6309C42.465 42.6309 32.8614 51.1816 32.4509 51.5445C32.0869 51.8695 32.053 52.4308 32.3789 52.7938C32.5525 52.9879 32.7979 53.0892 33.0392 53.0892C33.2508 53.0892 33.4624 53.0133 33.6275 52.8655L33.636 52.8698Z" fill="#007580"/>
</g>
<g id="Group_24">
<path id="Vector_88" d="M70.607 97.2438C61.0034 102.469 49.292 96.8809 49.292 96.8809C49.292 96.8809 47.5609 111.805 46.8922 113.054C46.2234 114.307 69.934 115.291 69.934 115.291L70.607 97.2438Z" fill="#282846"/>
<path id="Vector_89" d="M69.8959 116.241C69.8959 116.241 69.9213 116.241 69.934 116.241C70.171 116.241 70.4038 116.152 70.5774 115.987C70.7636 115.814 70.8736 115.578 70.8821 115.329L71.5551 97.278C71.5678 96.9361 71.3942 96.6154 71.1064 96.4381C70.8144 96.2566 70.4504 96.2482 70.1499 96.4128C61.0965 101.338 49.8126 96.0836 49.6983 96.0287C49.4232 95.8979 49.0973 95.9063 48.8306 96.054C48.564 96.2017 48.382 96.4719 48.3481 96.7757C47.6498 102.781 46.4774 111.666 46.0541 112.615C45.8806 112.936 45.889 113.32 46.071 113.641C46.3546 114.135 47.0191 115.295 69.8959 116.245V116.241ZM50.0877 98.2529C53.2071 99.4768 61.7695 102.191 69.5996 98.7931L69.0198 114.312C60.0299 113.919 50.4771 113.227 48.0053 112.632C48.6656 109.885 49.6264 102.136 50.0877 98.2571V98.2529ZM47.7556 113.455C47.7556 113.455 47.7387 113.489 47.7302 113.502C47.7387 113.485 47.7471 113.472 47.7556 113.455Z" fill="#282846"/>
</g>
<g id="Group_25">
<path id="Vector_90" d="M89.9411 109.167C86.39 104.68 76.2743 99.6116 76.2743 99.6116L69.2737 93.9055C66.1797 99.0461 62.8868 103.693 59.3315 107.702C55.3022 103.355 52.0854 98.662 49.6475 93.6396L42.376 99.2318C42.376 99.2318 32.2688 104.685 28.7177 109.171C25.1666 113.657 22.2377 130.058 22.2377 130.058H96.4254C96.4254 130.058 93.4965 113.657 89.9454 109.171L89.9411 109.167Z" fill="#FED049"/>
<path id="Vector_91" d="M22.6694 128.746C23.1138 128.746 23.5074 128.438 23.6005 127.986C24.4894 123.61 26.8384 113.071 29.4626 109.754C32.0021 106.546 38.2959 102.676 40.8862 101.161C41.3391 100.895 41.4914 100.317 41.2248 99.8651C40.9581 99.4135 40.3783 99.2616 39.9254 99.5275C36.5944 101.477 30.6096 105.246 27.9727 108.58C25.2004 112.083 22.8768 122.006 21.7425 127.611C21.6366 128.125 21.971 128.624 22.4832 128.725C22.5466 128.737 22.6101 128.742 22.6736 128.742L22.6694 128.746Z" fill="#282846"/>
<path id="Vector_92" d="M43.2141 99.7761L49.3047 95.0914C51.7257 99.8183 54.8578 104.271 58.6289 108.344C58.8109 108.538 59.0606 108.648 59.3273 108.648H59.3358C59.6024 108.648 59.8606 108.529 60.0384 108.327C63.3101 104.638 66.4168 100.38 69.515 95.3277L74.6617 99.5229C75.0681 99.8521 75.6648 99.793 75.9992 99.3879C76.3293 98.9827 76.2701 98.3876 75.8638 98.0542L69.8705 93.1669C69.6589 92.9938 69.3795 92.9178 69.1087 92.9685C68.8378 93.0149 68.6008 93.1795 68.4569 93.4159C65.4518 98.4087 62.4509 102.625 59.3104 106.276C55.7127 102.258 52.75 97.8685 50.494 93.2259C50.3713 92.9685 50.1343 92.7828 49.8591 92.7153C49.5798 92.6477 49.2877 92.7153 49.0592 92.8883L42.0544 98.2779C41.6396 98.5986 41.5634 99.1937 41.8808 99.6073C42.2025 100.021 42.7951 100.097 43.2141 99.7804V99.7761Z" fill="#282846"/>
<path id="Vector_93" d="M89.192 109.753C92.5569 114.003 95.4561 130.058 95.4858 130.218C95.5662 130.678 95.9683 130.999 96.4212 130.999C96.4762 130.999 96.5312 130.995 96.5905 130.982C97.1068 130.889 97.4497 130.4 97.3608 129.885C97.238 129.205 94.3472 113.197 90.6903 108.58C87.7995 104.929 80.8455 100.97 77.9927 99.4381C77.5314 99.1891 76.9558 99.3622 76.706 99.8222C76.4563 100.282 76.6299 100.856 77.0912 101.105C79.8423 102.582 86.5297 106.381 89.2005 109.753H89.192Z" fill="#282846"/>
</g>
<path id="Vector_94" d="M67.9448 117.148C68.1268 117.376 68.4019 117.507 68.6897 117.507C68.7151 117.507 68.7447 117.507 68.7744 117.507C69.0918 117.478 69.3754 117.292 69.5278 117.013L77.2987 102.583C77.5484 102.123 77.3749 101.549 76.9135 101.3C76.4522 101.051 75.8765 101.224 75.6268 101.685L68.5119 114.89C66.0909 112.194 62.2605 108.851 62.0743 108.691C61.6807 108.349 61.0796 108.387 60.7326 108.779C60.3855 109.172 60.4278 109.771 60.8214 110.117C60.8722 110.159 65.8497 114.511 67.9406 117.153L67.9448 117.148Z" fill="#282846"/>
<path id="Vector_95" d="M49.8803 117.506C49.91 117.506 49.9354 117.506 49.965 117.506C50.2528 117.506 50.5279 117.376 50.7099 117.148C52.7965 114.506 57.7782 110.159 57.829 110.112C58.2226 109.766 58.265 109.171 57.9179 108.774C57.5751 108.382 56.9741 108.34 56.5762 108.686C56.3942 108.846 52.5638 112.193 50.1385 114.886L43.0236 101.68C42.7739 101.22 42.1983 101.047 41.737 101.296C41.2756 101.545 41.1021 102.119 41.3518 102.579L49.1227 117.008C49.2751 117.291 49.5587 117.477 49.8761 117.502L49.8803 117.506Z" fill="#282846"/>
<g id="Group_26">
<path id="Vector_96" d="M20.7183 97.9489H20.5278C19.6263 97.9489 17.2222 96.5097 14.3949 94.7582C11.4618 92.9476 8.42703 91.0737 6.37426 90.6264C5.63356 90.466 4.9479 90.3816 4.33841 90.3816C2.95861 90.3816 1.92587 90.8036 1.27406 91.6393C-0.554388 93.9817 1.38411 98.3161 2.02322 99.5865C4.59236 104.71 9.74758 108.509 14.7335 112.185L14.8478 112.269C15.5758 112.805 16.2995 113.341 17.0064 113.873L17.163 113.991L17.3873 116.793C17.4 116.954 17.5016 117.093 17.6539 117.156L17.8825 117.249L17.9164 117.49C17.9587 117.785 27.5707 117.144 27.5707 117.144L27.8543 113.704C27.8628 112.843 27.8586 111.298 27.8035 108.842C27.7654 107.124 27.4014 105.757 27.012 104.309C26.7877 103.465 26.5295 102.511 26.356 101.46C25.2132 94.6147 24.3456 90.7741 23.0589 90.0608C22.898 89.9722 22.7287 89.9258 22.5552 89.9258C22.424 89.9258 22.2886 89.9511 22.1616 90.006C20.3204 90.7657 20.5109 92.61 20.913 94.7667C21.15 96.0286 21.3743 97.2188 20.8453 97.8012L20.7141 97.9447L20.7183 97.9489Z" fill="white"/>
<g id="Group_27">
<path id="Vector_97" d="M14.6784 94.3281C11.703 92.488 8.62592 90.5887 6.48426 90.1245C3.83047 89.5505 1.94276 89.9514 0.867701 91.3273C-1.14698 93.9103 0.888863 98.4811 1.56184 99.8232C4.186 105.057 9.39201 108.893 14.4245 112.607L15.7281 113.569C16.1471 113.882 16.7439 113.793 17.0571 113.375C17.3703 112.957 17.2814 112.362 16.8624 112.05L15.5546 111.083C10.6999 107.504 5.68008 103.803 3.25908 98.9749C1.86658 96.1978 1.50681 93.5895 2.36601 92.488C3.09401 91.5552 4.78702 91.6945 6.07794 91.9731C7.90216 92.3698 10.9707 94.2648 13.6753 95.9361C18.1279 98.6879 20.3246 99.9667 21.5774 99.0002C22.9234 97.9577 22.5806 96.126 22.2758 94.5096C21.9161 92.5935 21.8864 91.7578 22.5001 91.378C23.4609 92.5133 24.5275 98.8989 24.9931 101.693C25.1751 102.794 25.4333 103.744 25.6788 104.668C26.0428 106.036 26.3898 107.323 26.4237 108.88C26.5168 112.987 26.4576 114.502 26.4576 114.519C26.4364 115.042 26.8427 115.481 27.3675 115.502C27.3802 115.502 27.3929 115.502 27.4056 115.502C27.9135 115.502 28.3326 115.101 28.3537 114.595C28.3537 114.532 28.413 113.021 28.3199 108.838C28.2818 107.057 27.8881 105.597 27.5114 104.183C27.2744 103.305 27.0332 102.393 26.8639 101.385C25.6153 93.9187 24.8069 90.4452 23.3086 89.618C22.8853 89.3817 22.407 89.3521 21.9626 89.5378C19.5839 90.517 20.058 93.0324 20.405 94.8683C20.5955 95.8812 20.8114 97.0165 20.4855 97.4344C19.6009 97.3753 16.6466 95.5563 14.67 94.3323L14.6784 94.3281Z" fill="#282846"/>
<path id="Vector_98" d="M9.29469 104.521C9.34972 104.576 9.40897 104.622 9.47669 104.66C10.6195 105.327 12.0755 105.656 13.6203 106.011C16.7101 106.716 19.9056 107.446 21.332 110.814C21.4844 111.177 21.8357 111.392 22.2081 111.392C22.3309 111.392 22.4578 111.367 22.5764 111.316C23.0589 111.113 23.2874 110.556 23.08 110.075C21.2727 105.817 17.2645 104.901 14.0436 104.166C12.6934 103.858 11.4194 103.567 10.5264 103.082C9.62906 102.221 4.68547 97.5571 1.92587 96.7256C1.42643 96.5737 0.893132 96.8565 0.740761 97.3587C0.58839 97.8609 0.871969 98.3885 1.37564 98.5404C3.43265 99.1609 7.78792 103.073 9.29046 104.529L9.29469 104.521Z" fill="#282846"/>
<path id="Vector_99" d="M11.2925 101.908C11.4702 102.064 11.6945 102.14 11.9146 102.14C12.1813 102.14 12.4437 102.03 12.6342 101.811C12.977 101.414 12.9347 100.819 12.5368 100.477C10.5899 98.7972 4.0506 93.3232 1.655 93.3232C1.13016 93.3232 0.706909 93.7453 0.706909 94.2686C0.706909 94.792 1.13016 95.214 1.655 95.214C2.81471 95.214 7.5636 98.6875 11.2967 101.908H11.2925Z" fill="#282846"/>
<path id="Vector_100" d="M13.5271 100.207C13.7091 100.38 13.9462 100.465 14.179 100.465C14.4287 100.465 14.6826 100.363 14.8689 100.169C15.2286 99.7894 15.2117 99.1901 14.8308 98.8313C13.9843 98.0379 6.48422 91.0487 3.10243 90.6731C2.58183 90.614 2.11202 90.9897 2.05277 91.5088C1.99351 92.0279 2.37021 92.4964 2.89081 92.5555C4.96474 92.7876 10.5136 97.371 13.5229 100.207H13.5271Z" fill="#282846"/>
</g>
</g>
<g id="Group_28">
<g id="Group_29">
<path id="Vector_101" d="M30.6857 130.941C30.4445 124.041 29.2721 118.288 29.2721 118.288C29.2721 118.288 29.5895 114.304 28.5695 114.135C27.8796 114.021 15.5164 114.907 15.5079 115.089C15.4529 115.887 15.5079 119.487 15.5079 119.487C15.5079 119.487 14.4752 125.028 14.3524 130.937H30.69L30.6857 130.941Z" fill="#FED049"/>
<path id="Vector_102" d="M14.3313 131.823C14.3313 131.823 14.344 131.823 14.3482 131.823C14.8265 131.823 15.2244 131.439 15.2328 130.958C15.3556 125.192 16.3629 119.702 16.3756 119.647C16.3883 119.588 16.3925 119.533 16.3883 119.474C16.3756 118.706 16.3587 116.899 16.3672 115.84C18.7162 115.578 26.7199 115.008 28.2309 115C28.4129 115.502 28.4891 116.929 28.3875 118.22C28.3791 118.3 28.3875 118.385 28.4002 118.465C28.4129 118.52 29.5599 124.23 29.797 130.974C29.8139 131.451 30.2075 131.827 30.6816 131.827C30.69 131.827 30.7027 131.827 30.7112 131.827C31.1979 131.81 31.5831 131.401 31.5662 130.915C31.3418 124.576 30.3303 119.123 30.161 118.241C30.3895 115.139 29.9028 113.468 28.7134 113.27C28.5949 113.278 15.673 113.835 14.9577 114.396C14.763 114.553 14.636 114.785 14.6191 115.034C14.5683 115.798 14.6064 118.849 14.6191 119.419C14.4837 120.178 13.5821 125.344 13.4636 130.928C13.4552 131.413 13.8403 131.819 14.3313 131.827V131.823Z" fill="#282846"/>
</g>
<path id="Vector_103" d="M17.8781 119.364L26.9273 118.583C27.414 118.541 27.7738 118.114 27.7315 117.629C27.6891 117.144 27.2659 116.789 26.7749 116.827L17.7258 117.608C17.239 117.65 16.8793 118.076 16.9216 118.562C16.9597 119.022 17.3491 119.368 17.802 119.368C17.8274 119.368 17.8528 119.368 17.8781 119.368V119.364Z" fill="#282846"/>
</g>
</g>
</g>
<defs>
<clipPath id="clip0_6026_2036">
<rect width="241" height="132" fill="white"/>
</clipPath>
</defs>
</svg>
