<svg width="30" height="31" viewBox="0 0 30 31" fill="none" xmlns="http://www.w3.org/2000/svg">
<path d="M18.7499 16.0455L13.7499 21.0455L11.2499 18.5455M16.5574 7.86928L18.0837 9.16928C18.4687 9.49678 18.9462 9.69428 19.4487 9.73553L21.4487 9.89553C22.0172 9.94092 22.5509 10.1872 22.9542 10.5904C23.3576 10.9935 23.6042 11.5271 23.6499 12.0955L23.8087 14.0955C23.8499 14.5993 24.0487 15.078 24.3762 15.4618L25.6762 16.9868C26.0467 17.4211 26.2502 17.9734 26.2502 18.5443C26.2502 19.1152 26.0467 19.6674 25.6762 20.1018L24.3762 21.628C24.0487 22.013 23.8499 22.4905 23.8099 22.9943L23.6499 24.9943C23.6045 25.5627 23.3582 26.0965 22.9551 26.4998C22.552 26.9032 22.0184 27.1498 21.4499 27.1955L19.4499 27.3555C18.9464 27.3954 18.4683 27.5931 18.0837 27.9205L16.5574 29.2205C16.1231 29.591 15.5709 29.7946 14.9999 29.7946C14.429 29.7946 13.8768 29.591 13.4424 29.2205L11.9174 27.9205C11.5325 27.5929 11.0539 27.3951 10.5499 27.3555L8.54994 27.1955C7.9813 27.1498 7.44756 26.903 7.04441 26.4994C6.64125 26.0957 6.39505 25.5617 6.34994 24.993L6.18994 22.9943C6.14946 22.4911 5.95131 22.0134 5.62369 21.6293L4.32369 20.1018C3.95385 19.6676 3.75073 19.1159 3.75073 18.5455C3.75073 17.9752 3.95385 17.4235 4.32369 16.9893L5.62369 15.4618C5.95244 15.0768 6.14869 14.5993 6.18869 14.0955L6.34869 12.0968C6.3942 11.5277 6.64106 10.9935 7.04496 10.5901C7.44885 10.1867 7.98333 9.9404 8.55244 9.89553L10.5499 9.73678C11.0536 9.69656 11.5317 9.49839 11.9162 9.17053L13.4424 7.87053C13.8768 7.50003 14.429 7.29651 14.9999 7.29651C15.5709 7.29651 16.1231 7.49878 16.5574 7.86928Z" stroke="#ED780B" stroke-width="2" stroke-linecap="round" stroke-linejoin="round"/>
</svg>
