<svg width="71" height="68" viewBox="0 0 71 68" fill="none" xmlns="http://www.w3.org/2000/svg">
<g id="_&#231;&#183;&#168;&#233;&#155;&#134;&#227;&#131;&#162;&#227;&#131;&#188;&#227;&#131;&#137;" clip-path="url(#clip0_6026_445)">
<g id="Group">
<path id="Vector" d="M57.2348 60.1215C57.2348 60.1215 56.8002 36.4645 56.3491 32.0568C55.8251 26.9518 55.9757 25.7595 53.1054 24.9994C53.1054 24.9994 51.746 28.3655 51.4277 30.3841L52.2438 57.3082C51.8564 59.7663 50.2593 60.2651 48.4787 59.7935L42.5986 58.2363C40.9798 57.8076 39.8015 56.9551 40.3836 54.7569L39.9951 56.2242C39.3361 58.7127 40.6745 61.225 42.9825 61.8362L51.7346 64.154C54.2741 64.8265 56.8679 62.9251 57.233 60.121L57.2348 60.1215Z" fill="#F4CD27"/>
<path id="Vector_2" d="M51.5109 64.9987L42.7587 62.681C39.9877 61.9471 38.3682 58.9516 39.1493 56.0022L39.5379 54.5349C39.6614 54.0684 40.1401 53.7904 40.6068 53.914C41.0736 54.0376 41.3519 54.5161 41.2284 54.9826C40.8602 56.3728 41.2617 56.9803 42.8218 57.3934L48.7019 58.9506C49.2422 59.0937 49.9988 59.1919 50.5343 58.8404C50.9502 58.5693 51.2315 58.0345 51.3663 57.2507L50.5532 30.4119C50.5516 30.3584 50.5542 30.3041 50.5628 30.2493C50.8926 28.1572 52.2361 24.8144 52.2929 24.6741C52.458 24.2659 52.9 24.0449 53.3263 24.1578C56.5346 25.0074 56.6983 26.6839 57.093 30.7327C57.1306 31.118 57.171 31.5297 57.2152 31.9718C57.6647 36.3633 58.0883 59.1409 58.1054 60.1084C58.1057 60.1517 58.1042 60.1946 58.0986 60.2383C57.8811 61.8983 56.9816 63.3719 55.6279 64.281C54.3798 65.1178 52.9175 65.3752 51.5099 65.0024L51.5109 64.9987ZM40.8076 58.4204C41.1018 59.6559 41.9823 60.6673 43.2061 60.9914L51.9583 63.3092C52.8716 63.551 53.8292 63.3802 54.6543 62.8263C55.5748 62.2093 56.1921 61.2074 56.3576 60.0701C56.3304 58.6655 55.9082 36.3501 55.4778 32.1464C55.4323 31.702 55.3928 31.2867 55.3539 30.8991C55.0089 27.3606 54.8908 26.559 53.6231 26.0739C53.2235 27.1374 52.5261 29.1027 52.3016 30.4406L53.1165 57.2799C53.1181 57.3334 53.115 57.3895 53.1069 57.4424C52.8967 58.7782 52.3528 59.7406 51.4902 60.3022C50.6393 60.857 49.5215 60.9718 48.2555 60.6365L42.3754 59.0793C41.8406 58.9377 41.2902 58.729 40.8076 58.4204Z" fill="black"/>
</g>
<g id="Group_2">
<path id="Vector_3" d="M57.2348 60.1215C57.2348 60.1215 56.8002 36.4645 56.3491 32.0568C55.8251 26.9518 55.9757 25.7594 53.1054 24.9993C53.1054 24.9993 53.137 28.7338 52.8188 30.7524L52.2438 57.3081C51.8564 59.7663 50.2593 60.265 48.4787 59.7935L42.5986 58.2363C40.9798 57.8076 39.9946 56.226 39.9946 56.226C39.3356 58.7144 40.674 61.2268 42.982 61.838L51.7342 64.1558C54.2736 64.8283 56.8674 62.9269 57.2325 60.1228L57.2348 60.1215Z" fill="#FFEEA4"/>
<path id="Vector_4" d="M51.5109 64.9987L42.7587 62.6809C39.9877 61.9471 38.3682 58.9516 39.1493 56.0022C39.2383 55.6661 39.5193 55.4143 39.8635 55.362C40.2077 55.3097 40.5508 55.4694 40.7344 55.7636C40.7417 55.7734 41.5691 57.0597 42.8205 57.3911L48.7006 58.9483C49.2408 59.0913 49.9974 59.1895 50.533 58.838C50.9535 58.5642 51.2349 58.0216 51.3689 57.2258L51.943 30.7327C51.9435 30.6936 51.9477 30.6554 51.9543 30.6159C52.2569 28.6934 52.2306 25.0428 52.2302 25.0073C52.2275 24.7354 52.3528 24.4777 52.5681 24.3107C52.7834 24.1437 53.064 24.0863 53.3286 24.1564C56.537 25.0061 56.7006 26.6825 57.0953 30.7314C57.1329 31.1167 57.1733 31.5283 57.2175 31.9704C57.667 36.3619 58.0906 59.1395 58.1077 60.107C58.1081 60.1504 58.1066 60.1932 58.1009 60.2369C57.8835 61.897 56.9839 63.3705 55.6302 64.2796C54.3821 65.1164 52.9198 65.3738 51.5122 65.001L51.5109 64.9987ZM40.7793 58.297C41.0428 59.5891 41.9396 60.6579 43.2038 60.9927L51.956 63.3105C52.8692 63.5524 53.8269 63.3815 54.652 62.8276C55.5725 62.2106 56.1898 61.2087 56.3553 60.0714C56.3281 58.6669 55.9059 36.3515 55.4755 32.1478C55.43 31.7034 55.3905 31.2881 55.3516 30.9004C55.0404 27.7168 54.9136 26.7478 53.9686 26.2322C53.9515 27.5071 53.891 29.4878 53.6872 30.8291L53.114 57.3264C53.1135 57.3655 53.1093 57.4037 53.1027 57.4433C52.8925 58.779 52.3486 59.7414 51.4861 60.303C50.6352 60.8579 49.5174 60.9726 48.2513 60.6373L42.3712 59.0801C41.7575 58.9176 41.2216 58.6244 40.7775 58.2965L40.7793 58.297Z" fill="black"/>
</g>
<g id="Group_3">
<path id="Vector_5" d="M2.90983 45.735C2.90983 45.735 14.9962 25.3938 17.5692 21.789C20.5512 17.6124 21.0105 16.5018 23.8807 17.2619C23.8807 17.2619 22.0049 20.4913 21.2824 22.4028L8.63857 45.7624C7.75863 48.0901 8.8995 49.314 10.6801 49.7855L16.5602 51.3427C18.1791 51.7714 19.8179 50.8848 19.8179 50.8848C19.1589 53.3732 16.7524 54.8938 14.4445 54.2826L5.69047 51.9643C3.151 51.2918 1.83821 48.3559 2.90886 45.7387L2.90983 45.735Z" fill="#FFEEA4"/>
<path id="Vector_6" d="M14.2218 55.1237L5.46777 52.8054C4.06205 52.4331 2.91643 51.4871 2.24662 50.1404C1.52026 48.6804 1.4661 46.9544 2.10065 45.4048C2.11686 45.3658 2.13723 45.326 2.15896 45.2885C2.65268 44.4563 14.2943 24.8738 16.8584 21.2804C17.1156 20.9181 17.3544 20.5804 17.5778 20.2642C19.9247 16.9414 20.8966 15.5657 24.105 16.4153C24.3677 16.4849 24.585 16.6741 24.6895 16.9258C24.7939 17.1775 24.7752 17.4634 24.6383 17.6984C24.6198 17.7308 22.7907 20.8881 22.1022 22.7084C22.0883 22.7459 22.0712 22.7807 22.0541 22.8155L9.44053 46.1202C9.16315 46.8781 9.13906 47.4888 9.36898 47.9349C9.66268 48.504 10.3682 48.795 10.9066 48.9376L16.7868 50.4948C18.0344 50.8252 19.3914 50.1193 19.4048 50.1131C19.7123 49.9469 20.0872 49.9794 20.3604 50.1952C20.6336 50.411 20.7532 50.7689 20.6642 51.105C19.8831 54.0543 16.9933 55.8557 14.2223 55.1218L14.2218 55.1237ZM3.69569 46.1239C3.27661 47.1941 3.31713 48.3702 3.81156 49.3619C4.25438 50.2515 5.00195 50.874 5.9152 51.1159L14.6674 53.4336C15.9334 53.7689 17.2417 53.2841 18.1083 52.2912C17.5601 52.3563 16.9494 52.3459 16.3356 52.1833L10.4555 50.6261C9.18947 50.2909 8.27544 49.6361 7.8102 48.7347C7.33868 47.8197 7.34238 46.7143 7.82085 45.4496C7.83425 45.4138 7.85181 45.3772 7.86889 45.3424L20.4866 22.0368C20.9734 20.7704 21.9012 19.0194 22.5173 17.9032C21.441 17.8834 20.8512 18.6627 19.0051 21.275C18.7813 21.5931 18.5396 21.9339 18.2801 22.2976C15.8256 25.7373 4.41266 44.9165 3.6952 46.1257L3.69569 46.1239Z" fill="black"/>
</g>
<g id="Group_4">
<path id="Vector_7" d="M42.3226 8.38501L41.3487 8.1271C37.9291 7.2215 34.4224 9.25842 33.5173 12.6761C32.6122 16.0938 34.6511 19.5993 38.0708 20.5049L39.0447 20.7628C42.4644 21.6684 45.9711 19.6315 46.8762 16.2138C47.7812 12.7962 45.7423 9.29062 42.3226 8.38501ZM44.197 15.5044C43.6548 17.552 41.5545 18.7704 39.5075 18.2283L38.9231 18.0736C36.8743 17.531 35.6546 15.4314 36.1964 13.3856C36.7387 11.3379 38.839 10.1195 40.886 10.6616L41.4703 10.8163C43.5192 11.3589 44.7388 13.4585 44.197 15.5044Z" fill="#FFEEA4"/>
<path id="Vector_8" d="M38.8214 21.6058L37.8475 21.3479C33.9667 20.3201 31.6471 16.3295 32.6738 12.4527C33.7005 8.57593 37.6934 6.25505 41.5724 7.28232L42.5463 7.54023C46.4272 8.56797 48.7467 12.5586 47.72 16.4354C46.6934 20.3122 42.7009 22.6312 38.8219 21.6039L38.8214 21.6058ZM41.125 8.97187C38.1757 8.19084 35.1431 9.9524 34.3625 12.8999C33.5819 15.8475 35.3452 18.8791 38.2945 19.6601L39.2684 19.9181C42.2176 20.6991 45.2503 18.9375 46.0309 15.99C46.8114 13.0425 45.0481 10.0108 42.0989 9.22978L41.125 8.97187ZM39.2837 19.0731L38.7012 18.9189C36.1911 18.2541 34.6886 15.6708 35.3529 13.1622C36.0173 10.6536 38.6014 9.15257 41.1115 9.8173L41.694 9.97156C44.2041 10.6363 45.7066 13.2196 45.0423 15.7282C44.3779 18.2368 41.7938 19.7378 39.2837 19.0731ZM40.6646 11.505C39.0861 11.087 37.4599 12.0301 37.0416 13.6094C36.6234 15.1888 37.5679 16.8126 39.1481 17.2311L39.7306 17.3854C41.3091 17.8034 42.9353 16.8603 43.3536 15.281C43.7718 13.7016 42.8273 12.0778 41.2471 11.6593L40.6646 11.505Z" fill="black"/>
</g>
<g id="Group_5">
<path id="Vector_9" d="M39.6903 62.7508L16.7284 56.6699C12.1511 55.4577 9.5443 50.6364 11.0382 46.1464L20.4138 17.9829C21.7816 13.8721 26.1137 11.533 30.3051 12.643L50.1321 17.8936C54.3713 19.0163 56.979 23.2699 56.0569 27.5537L49.8162 56.5474C48.8301 61.1247 44.218 63.9498 39.6903 62.7508Z" fill="#FFEEA4"/>
<path id="Vector_10" d="M39.4665 63.5955L16.5047 57.5147C14.0553 56.866 12.0424 55.2816 10.8375 53.0522C9.63253 50.8229 9.40946 48.2718 10.2088 45.8697L19.5844 17.7062C21.0951 13.1676 25.9018 10.5729 30.5288 11.7982L50.3558 17.0489C55.0543 18.2931 57.9345 22.9884 56.9129 27.7371L50.6721 56.7308C50.145 59.1814 48.6767 61.2511 46.5405 62.5603C44.4026 63.869 41.8921 64.2379 39.4684 63.596L39.4665 63.5955ZM30.0813 13.4877C26.3456 12.4984 22.4637 14.5932 21.2431 18.2595L11.8675 46.423C11.2215 48.3646 11.4021 50.4228 12.3745 52.2231C13.347 54.0234 14.9726 55.3029 16.9516 55.827L39.9135 61.9078C41.8705 62.4261 43.8995 62.1301 45.6251 61.0719C47.3506 60.0136 48.5364 58.3427 48.962 56.3644L55.2028 27.3707C56.0279 23.5349 53.7028 19.7433 49.9083 18.7384L30.0813 13.4877Z" fill="black"/>
</g>
<g id="Group_6">
<path id="Vector_11" d="M42.5847 41.9013L24.5346 37.1212C22.3719 36.5485 20.1548 37.8363 19.5824 39.9977L17.4935 47.8854C16.9212 50.0468 18.2103 52.2632 20.3729 52.8359L38.423 57.616C40.5857 58.1887 42.8028 56.9008 43.3752 54.7395L45.4641 46.8518C46.0365 44.6904 44.7473 42.474 42.5847 41.9013Z" fill="#F4CD27"/>
<path id="Vector_12" d="M38.1998 58.4589L20.1497 53.6788C17.5257 52.9839 15.9556 50.2845 16.6501 47.662L18.7394 39.7725C19.4339 37.15 22.1342 35.5815 24.7582 36.2764L42.8084 41.0565C45.4324 41.7514 47.0043 44.4513 46.3098 47.0738L44.2205 54.9633C43.526 57.5858 40.8256 59.1543 38.1998 58.4589ZM24.3113 37.9641C22.6189 37.5159 20.876 38.5283 20.4281 40.2197L18.3388 48.1092C17.8908 49.8006 18.9042 51.5429 20.5966 51.9911L38.6467 56.7712C40.3391 57.2194 42.082 56.207 42.5299 54.5156L44.6192 46.6261C45.0672 44.9347 44.0538 43.1924 42.3614 42.7442L24.3113 37.9641Z" fill="black"/>
</g>
<g id="Group_7">
<path id="Vector_13" d="M33.0222 35.9749L33.616 35.975C33.8443 35.9745 34.0238 36.1281 34.0056 36.3081L33.7129 39.2178C33.696 39.3784 33.5278 39.5009 33.325 39.5022C33.1226 39.5016 32.9523 39.3799 32.936 39.2184L32.6363 36.311C32.6171 36.131 32.7971 35.9782 33.0254 35.9777L33.0222 35.9749Z" fill="black"/>
<path id="Vector_14" d="M35.7767 36.7044L35.2607 36.4105C35.0626 36.2971 34.8305 36.3418 34.7573 36.5071L33.5715 39.1803C33.5068 39.3282 33.5922 39.5179 33.7679 39.6194C33.944 39.7192 34.1522 39.6977 34.2463 39.5653L35.9457 37.1874C36.0515 37.0405 35.9706 36.8186 35.7725 36.7052L35.7767 36.7044Z" fill="black"/>
</g>
<path id="Vector_15" d="M40.6291 24.2325L38.9276 23.7819C38.8412 23.759 38.788 23.6703 38.8114 23.5821L39.2617 21.8815C39.2846 21.7952 39.2337 21.7051 39.1455 21.6818L37.8611 21.3416C37.7747 21.3187 37.6846 21.3695 37.6612 21.4577L37.2109 23.1583C37.188 23.2446 37.0992 23.2977 37.011 23.2744L35.3095 22.8237C35.2231 22.8009 35.1329 22.8517 35.1096 22.9398L34.7696 24.2235C34.7468 24.3098 34.7976 24.3999 34.8858 24.4233L36.5874 24.8739C36.6738 24.8968 36.727 24.9856 36.7036 25.0737L36.2533 26.7743C36.2304 26.8606 36.2813 26.9507 36.3695 26.9741L37.6539 27.3142C37.7403 27.3371 37.8304 27.2863 37.8537 27.1981L38.3041 25.4976C38.327 25.4112 38.4158 25.3581 38.504 25.3815L40.2055 25.8321C40.2919 25.855 40.382 25.8041 40.4054 25.716L40.7453 24.4323C40.7682 24.346 40.7173 24.2559 40.6291 24.2325Z" fill="black"/>
</g>
<defs>
<clipPath id="clip0_6026_445">
<rect width="58.03" height="54.9758" fill="white" transform="translate(14.0737) rotate(14.8328)"/>
</clipPath>
</defs>
</svg>
