<svg width="390" height="10" viewBox="0 0 390 10" fill="none" xmlns="http://www.w3.org/2000/svg">
<rect width="5.81328" height="15.7259" transform="matrix(1 0 -0.771776 0.635894 12.1368 0)" fill="#FAE682"/>
<rect width="5.81328" height="15.7259" transform="matrix(1 0 -0.771776 0.635894 27.6389 0)" fill="#FAE682"/>
<rect width="5.81328" height="15.7259" transform="matrix(1 0 -0.771776 0.635894 43.141 0)" fill="#FAE682"/>
<rect width="5.81328" height="15.7259" transform="matrix(1 0 -0.771776 0.635894 58.6431 0)" fill="#FAE682"/>
<rect width="5.81328" height="15.7259" transform="matrix(1 0 -0.771776 0.635894 74.1453 0)" fill="#FAE682"/>
<rect width="5.81328" height="15.7259" transform="matrix(1 0 -0.771776 0.635894 89.6472 0)" fill="#FAE682"/>
<rect width="5.81328" height="15.7259" transform="matrix(1 0 -0.771776 0.635894 105.149 0)" fill="#FAE682"/>
<rect width="5.81328" height="15.7259" transform="matrix(1 0 -0.771776 0.635894 120.651 0)" fill="#FAE682"/>
<rect width="5.81328" height="15.7259" transform="matrix(1 0 -0.771776 0.635894 136.154 0)" fill="#FAE682"/>
<rect width="5.81328" height="15.7259" transform="matrix(1 0 -0.771776 0.635894 151.656 0)" fill="#FAE682"/>
<rect width="5.81328" height="15.7259" transform="matrix(1 0 -0.771776 0.635894 167.158 0)" fill="#FAE682"/>
<rect width="5.81328" height="15.7259" transform="matrix(1 0 -0.771776 0.635894 182.66 0)" fill="#FAE682"/>
<rect width="5.81328" height="15.7259" transform="matrix(1 0 -0.771776 0.635894 198.162 0)" fill="#FAE682"/>
<rect width="5.81328" height="15.7259" transform="matrix(1 0 -0.771776 0.635894 213.664 0)" fill="#FAE682"/>
<rect width="5.81328" height="15.7259" transform="matrix(1 0 -0.771776 0.635894 229.166 0)" fill="#FAE682"/>
<rect width="5.81328" height="15.7259" transform="matrix(1 0 -0.771776 0.635894 244.668 0)" fill="#FAE682"/>
<rect width="5.81328" height="15.7259" transform="matrix(1 0 -0.771776 0.635894 260.17 0)" fill="#FAE682"/>
<rect width="5.81328" height="15.7259" transform="matrix(1 0 -0.771776 0.635894 275.672 0)" fill="#FAE682"/>
<rect width="5.81328" height="15.7259" transform="matrix(1 0 -0.771776 0.635894 291.174 0)" fill="#FAE682"/>
<rect width="5.81328" height="15.7259" transform="matrix(1 0 -0.771776 0.635894 306.676 0)" fill="#FAE682"/>
<rect width="5.81328" height="15.7259" transform="matrix(1 0 -0.771776 0.635894 322.178 0)" fill="#FAE682"/>
<rect width="5.81328" height="15.7259" transform="matrix(1 0 -0.771776 0.635894 337.68 0)" fill="#FAE682"/>
<rect width="5.81328" height="15.7259" transform="matrix(1 0 -0.771776 0.635894 353.183 0)" fill="#FAE682"/>
<rect width="5.81328" height="15.7259" transform="matrix(1 0 -0.771776 0.635894 368.685 0)" fill="#FAE682"/>
<rect width="5.81328" height="15.7259" transform="matrix(1 0 -0.771776 0.635894 384.187 0)" fill="#FAE682"/>
</svg>
