<svg width="24" height="25" viewBox="0 0 24 25" fill="none" xmlns="http://www.w3.org/2000/svg">
<g clip-path="url(#clip0_6026_2282)">
<path d="M11.9986 24.9998C6.49625 24.9998 1.5698 21.3069 0.0240946 16.0157C-0.0643081 15.71 0.109818 15.3908 0.41521 15.3023C0.720601 15.2138 1.03939 15.3881 1.12779 15.6939C2.53152 20.497 7.00255 23.8493 12.0013 23.8493C17.0001 23.8493 21.4685 20.4943 22.8749 15.6939C22.9633 15.3881 23.282 15.2138 23.5874 15.3023C23.8928 15.3908 24.067 15.71 23.9786 16.0157C22.4302 21.3042 17.5064 24.9998 12.0013 24.9998H11.9986Z" fill="black"/>
<path d="M0.576186 9.72163C0.522609 9.72163 0.469031 9.71358 0.415454 9.69749C0.110063 9.60899 -0.064064 9.28717 0.0243387 8.98412C1.57273 3.69288 6.49649 0 11.9989 0C17.5013 0 22.4277 3.69288 23.9761 8.98412C24.0645 9.28985 23.8904 9.60899 23.585 9.69749C23.2796 9.78599 22.9608 9.61167 22.8724 9.30594C21.4687 4.50279 16.995 1.1505 11.9989 1.1505C7.0028 1.1505 2.53444 4.50547 1.12803 9.30594C1.0557 9.55803 0.825321 9.71894 0.576186 9.71894V9.72163Z" fill="black"/>
<path d="M4.70678 10.0406C4.73089 9.87706 4.73893 9.73492 4.73893 9.51501V7.30786C4.73893 7.11209 4.73089 6.96459 4.70678 6.78223C4.88091 6.79027 5.00949 6.79564 5.2238 6.79564H6.07568C6.47216 6.79564 6.74808 6.8895 6.94364 7.08527C7.10973 7.24886 7.19545 7.49291 7.19545 7.78791C7.19545 8.099 7.10169 8.3511 6.92221 8.53882C6.72129 8.73996 6.44537 8.83382 6.05425 8.83382H5.2747V9.51501C5.2747 9.73492 5.28274 9.89046 5.30685 10.046H4.7041L4.70678 10.0406ZM6.05693 8.35914C6.43197 8.35914 6.63557 8.158 6.63557 7.80132C6.63557 7.63773 6.59003 7.50364 6.50162 7.40977C6.40786 7.30786 6.27392 7.26227 6.05693 7.26227H5.27738V8.35914H6.05693Z" fill="black"/>
<path d="M10.4959 7.13615C10.7932 7.43384 10.9513 7.87902 10.9513 8.41002C10.9513 9.44253 10.3512 10.1103 9.427 10.1103C8.50279 10.1103 7.90808 9.44521 7.90808 8.41002C7.90808 7.88438 8.07149 7.43115 8.37153 7.13615C8.65281 6.85993 8.99034 6.72852 9.42164 6.72852C9.85294 6.72852 10.2173 6.85993 10.4932 7.13615H10.4959ZM10.3807 8.41002C10.3807 7.99702 10.2655 7.66716 10.0592 7.46065C9.89312 7.29706 9.67614 7.21124 9.43236 7.21124C8.84569 7.21124 8.47332 7.6752 8.47332 8.41539C8.47332 8.82302 8.59119 9.1663 8.80282 9.37816C8.96891 9.54175 9.1859 9.62757 9.43504 9.62757C10.0164 9.62757 10.3807 9.16362 10.3807 8.4127V8.41002Z" fill="black"/>
<path d="M12.4567 6.79297C12.4326 6.94851 12.4246 7.07456 12.4246 7.31861V9.51234C12.4246 9.75371 12.4326 9.88243 12.4567 10.038H11.8379C11.862 9.88243 11.87 9.75371 11.87 9.51234V7.31861C11.87 7.06652 11.862 6.95656 11.8379 6.79297H12.4567Z" fill="black"/>
<path d="M15.5616 10.0404C15.492 9.90096 15.4196 9.78296 15.3018 9.60328L14.2516 8.01563C14.174 7.89227 14.0722 7.71795 13.9757 7.52486C13.9775 7.56241 13.9829 7.63213 13.9918 7.73404C13.9972 7.81182 14.0052 7.99418 14.0052 8.08804V9.42628C14.0052 9.69982 14.0186 9.89023 14.0373 10.0377H13.4426C13.4641 9.90364 13.4748 9.69982 13.4748 9.42091V7.31568C13.4748 7.10381 13.4667 6.95631 13.4426 6.79004H14.0775C14.115 6.89195 14.1874 7.01531 14.3267 7.22181L15.358 8.77727C15.4571 8.92477 15.5857 9.13664 15.6768 9.30023C15.6607 9.142 15.6473 8.89527 15.6473 8.72364V7.35322C15.6473 7.11186 15.6393 6.94559 15.6152 6.79004H16.2099C16.1858 6.95363 16.1778 7.10381 16.1778 7.35322V9.51209C16.1778 9.74005 16.1858 9.8956 16.2099 10.0377H15.567L15.5616 10.0404Z" fill="black"/>
<path d="M18.6262 9.50986C18.6262 9.72977 18.6343 9.87191 18.6584 10.0409H18.0422C18.0664 9.86923 18.0744 9.72977 18.0744 9.50986V7.28126H17.5252C17.2841 7.28126 17.11 7.28931 16.968 7.31077V6.76367C17.1154 6.78513 17.2895 6.79317 17.5225 6.79317H19.1352C19.4299 6.79317 19.5799 6.78513 19.7353 6.76367V7.31077C19.5853 7.28931 19.4299 7.28126 19.1352 7.28126H18.6262V9.50986Z" fill="black"/>
<path d="M9.60238 19.1598C8.99158 19.1574 8.46602 19.0071 8.02568 18.7088C7.5877 18.4105 7.25034 17.9785 7.0136 17.4126C6.77923 16.8468 6.66322 16.1662 6.66559 15.3707C6.66559 14.5777 6.78278 13.9018 7.01715 13.343C7.25389 12.7843 7.59125 12.3594 8.02923 12.0682C8.46957 11.7746 8.99395 11.6278 9.60238 11.6278C10.2108 11.6278 10.734 11.7746 11.172 12.0682C11.6123 12.3617 11.9509 12.7879 12.1876 13.3466C12.4243 13.9029 12.5415 14.5777 12.5392 15.3707C12.5392 16.1686 12.4208 16.8504 12.1841 17.4162C11.9497 17.982 11.6135 18.4141 11.1755 18.7124C10.7376 19.0107 10.2132 19.1598 9.60238 19.1598ZM9.60238 17.8849C10.019 17.8849 10.3517 17.6754 10.6002 17.2564C10.8488 16.8374 10.9719 16.2088 10.9696 15.3707C10.9696 14.8191 10.9127 14.3598 10.7991 13.9929C10.6878 13.6259 10.5292 13.3501 10.3233 13.1655C10.1197 12.9808 9.87937 12.8885 9.60238 12.8885C9.18808 12.8885 8.85664 13.0956 8.60806 13.5099C8.35948 13.9242 8.23401 14.5445 8.23164 15.3707C8.23164 15.9295 8.28728 16.3958 8.39854 16.7699C8.51218 17.1416 8.67198 17.4209 8.87795 17.608C9.08391 17.7926 9.32539 17.8849 9.60238 17.8849ZM16.6996 11.7273V19H15.162V13.1868H15.1194L13.4539 14.2308V12.8672L15.2543 11.7273H16.6996Z" fill="#ED780B"/>
</g>
<defs>
<clipPath id="clip0_6026_2282">
<rect width="24" height="25" fill="white"/>
</clipPath>
</defs>
</svg>
