<svg width="24" height="25" viewBox="0 0 24 25" fill="none" xmlns="http://www.w3.org/2000/svg">
<g clip-path="url(#clip0_6026_2293)">
<path d="M11.9986 24.9998C6.49625 24.9998 1.5698 21.3069 0.0240946 16.0157C-0.0643081 15.71 0.109818 15.3908 0.41521 15.3023C0.720601 15.2138 1.03939 15.3881 1.12779 15.6939C2.53152 20.497 7.00255 23.8493 12.0013 23.8493C17.0001 23.8493 21.4685 20.4943 22.8749 15.6939C22.9633 15.3881 23.282 15.2138 23.5874 15.3023C23.8928 15.3908 24.067 15.71 23.9786 16.0157C22.4302 21.3042 17.5064 24.9998 12.0013 24.9998H11.9986Z" fill="black"/>
<path d="M0.576186 9.72163C0.522609 9.72163 0.469031 9.71358 0.415454 9.69749C0.110063 9.60899 -0.064064 9.28717 0.0243387 8.98412C1.57273 3.69288 6.49649 0 11.9989 0C17.5013 0 22.4277 3.69288 23.9761 8.98412C24.0645 9.28985 23.8904 9.60899 23.585 9.69749C23.2796 9.78599 22.9608 9.61167 22.8724 9.30594C21.4687 4.50279 16.995 1.1505 11.9989 1.1505C7.0028 1.1505 2.53444 4.50547 1.12803 9.30594C1.0557 9.55803 0.825321 9.71894 0.576186 9.71894V9.72163Z" fill="black"/>
<path d="M4.70678 10.0406C4.73089 9.87706 4.73893 9.73492 4.73893 9.51501V7.30786C4.73893 7.11209 4.73089 6.96459 4.70678 6.78223C4.88091 6.79027 5.00949 6.79564 5.2238 6.79564H6.07568C6.47216 6.79564 6.74808 6.8895 6.94364 7.08527C7.10973 7.24886 7.19545 7.49291 7.19545 7.78791C7.19545 8.099 7.10169 8.3511 6.92221 8.53882C6.72129 8.73996 6.44537 8.83382 6.05425 8.83382H5.2747V9.51501C5.2747 9.73492 5.28274 9.89046 5.30685 10.046H4.7041L4.70678 10.0406ZM6.05693 8.35914C6.43197 8.35914 6.63557 8.158 6.63557 7.80132C6.63557 7.63773 6.59003 7.50364 6.50162 7.40977C6.40786 7.30786 6.27392 7.26227 6.05693 7.26227H5.27738V8.35914H6.05693Z" fill="black"/>
<path d="M10.4959 7.13615C10.7932 7.43384 10.9513 7.87902 10.9513 8.41002C10.9513 9.44253 10.3512 10.1103 9.427 10.1103C8.50279 10.1103 7.90808 9.44521 7.90808 8.41002C7.90808 7.88438 8.07149 7.43115 8.37153 7.13615C8.65281 6.85993 8.99034 6.72852 9.42164 6.72852C9.85294 6.72852 10.2173 6.85993 10.4932 7.13615H10.4959ZM10.3807 8.41002C10.3807 7.99702 10.2655 7.66716 10.0592 7.46065C9.89312 7.29706 9.67614 7.21124 9.43236 7.21124C8.84569 7.21124 8.47332 7.6752 8.47332 8.41539C8.47332 8.82302 8.59119 9.1663 8.80282 9.37816C8.96891 9.54175 9.1859 9.62757 9.43504 9.62757C10.0164 9.62757 10.3807 9.16362 10.3807 8.4127V8.41002Z" fill="black"/>
<path d="M12.4567 6.79297C12.4326 6.94851 12.4246 7.07456 12.4246 7.31861V9.51234C12.4246 9.75371 12.4326 9.88243 12.4567 10.038H11.8379C11.862 9.88243 11.87 9.75371 11.87 9.51234V7.31861C11.87 7.06652 11.862 6.95656 11.8379 6.79297H12.4567Z" fill="black"/>
<path d="M15.5616 10.0404C15.492 9.90096 15.4196 9.78296 15.3018 9.60328L14.2516 8.01563C14.174 7.89227 14.0722 7.71795 13.9757 7.52486C13.9775 7.56241 13.9829 7.63213 13.9918 7.73404C13.9972 7.81182 14.0052 7.99418 14.0052 8.08804V9.42628C14.0052 9.69982 14.0186 9.89023 14.0373 10.0377H13.4426C13.4641 9.90364 13.4748 9.69982 13.4748 9.42091V7.31568C13.4748 7.10381 13.4667 6.95631 13.4426 6.79004H14.0775C14.115 6.89195 14.1874 7.01531 14.3267 7.22181L15.358 8.77727C15.4571 8.92477 15.5857 9.13664 15.6768 9.30023C15.6607 9.142 15.6473 8.89527 15.6473 8.72364V7.35322C15.6473 7.11186 15.6393 6.94559 15.6152 6.79004H16.2099C16.1858 6.95363 16.1778 7.10381 16.1778 7.35322V9.51209C16.1778 9.74005 16.1858 9.8956 16.2099 10.0377H15.567L15.5616 10.0404Z" fill="black"/>
<path d="M18.6262 9.50986C18.6262 9.72977 18.6343 9.87191 18.6584 10.0409H18.0422C18.0664 9.86923 18.0744 9.72977 18.0744 9.50986V7.28126H17.5252C17.2841 7.28126 17.11 7.28931 16.968 7.31077V6.76367C17.1154 6.78513 17.2895 6.79317 17.5225 6.79317H19.1352C19.4299 6.79317 19.5799 6.78513 19.7353 6.76367V7.31077C19.5853 7.28931 19.4299 7.28126 19.1352 7.28126H18.6262V9.50986Z" fill="black"/>
<path d="M8.89925 19.1598C8.28846 19.1574 7.76289 19.0071 7.32255 18.7088C6.88458 18.4105 6.54722 17.9785 6.31048 17.4126C6.0761 16.8468 5.9601 16.1662 5.96246 15.3707C5.96246 14.5777 6.07965 13.9018 6.31403 13.343C6.55077 12.7843 6.88813 12.3594 7.3261 12.0682C7.76644 11.7746 8.29083 11.6278 8.89925 11.6278C9.50768 11.6278 10.0309 11.7746 10.4689 12.0682C10.9092 12.3617 11.2477 12.7879 11.4845 13.3466C11.7212 13.9029 11.8384 14.5777 11.836 15.3707C11.836 16.1686 11.7177 16.8504 11.4809 17.4162C11.2466 17.982 10.9104 18.4141 10.4724 18.7124C10.0344 19.0107 9.51005 19.1598 8.89925 19.1598ZM8.89925 17.8849C9.31592 17.8849 9.64854 17.6754 9.89712 17.2564C10.1457 16.8374 10.2688 16.2088 10.2664 15.3707C10.2664 14.8191 10.2096 14.3598 10.096 13.9929C9.98472 13.6259 9.8261 13.3501 9.62014 13.1655C9.41654 12.9808 9.17624 12.8885 8.89925 12.8885C8.48496 12.8885 8.15352 13.0956 7.90494 13.5099C7.65636 13.9242 7.53088 14.5445 7.52852 15.3707C7.52852 15.9295 7.58415 16.3958 7.69542 16.7699C7.80906 17.1416 7.96886 17.4209 8.17482 17.608C8.38079 17.7926 8.62227 17.8849 8.89925 17.8849ZM12.8325 19V17.892L15.4212 15.495C15.6414 15.282 15.8261 15.0902 15.9752 14.9197C16.1267 14.7493 16.2415 14.5824 16.3197 14.419C16.3978 14.2533 16.4369 14.0746 16.4369 13.8828C16.4369 13.6697 16.3883 13.4863 16.2913 13.3324C16.1942 13.1761 16.0616 13.0566 15.8935 12.9737C15.7255 12.8885 15.5349 12.8459 15.3218 12.8459C15.0993 12.8459 14.9051 12.8909 14.7394 12.9808C14.5737 13.0708 14.4459 13.1998 14.3559 13.3679C14.2659 13.536 14.221 13.736 14.221 13.968H12.7614C12.7614 13.4922 12.8692 13.0791 13.0846 12.7287C13.3 12.3783 13.6019 12.1072 13.9901 11.9155C14.3784 11.7237 14.8258 11.6278 15.3325 11.6278C15.8533 11.6278 16.3067 11.7202 16.6925 11.9048C17.0808 12.0871 17.3826 12.3404 17.5981 12.6648C17.8135 12.9891 17.9212 13.3608 17.9212 13.7798C17.9212 14.0545 17.8668 14.3255 17.7579 14.593C17.6513 14.8606 17.4608 15.1577 17.1862 15.4844C16.9115 15.8087 16.5245 16.1982 16.0249 16.6527L14.9631 17.6932V17.7429H18.0171V19H12.8325Z" fill="#ED780B"/>
</g>
<defs>
<clipPath id="clip0_6026_2293">
<rect width="24" height="25" fill="white"/>
</clipPath>
</defs>
</svg>
