<svg width="24" height="25" viewBox="0 0 24 25" fill="none" xmlns="http://www.w3.org/2000/svg">
<g clip-path="url(#clip0_6026_2304)">
<path d="M11.9986 24.9998C6.49625 24.9998 1.5698 21.3069 0.0240946 16.0157C-0.0643081 15.71 0.109818 15.3908 0.41521 15.3023C0.720601 15.2138 1.03939 15.3881 1.12779 15.6939C2.53152 20.497 7.00255 23.8493 12.0013 23.8493C17.0001 23.8493 21.4685 20.4943 22.8749 15.6939C22.9633 15.3881 23.282 15.2138 23.5874 15.3023C23.8928 15.3908 24.067 15.71 23.9786 16.0157C22.4302 21.3042 17.5064 24.9998 12.0013 24.9998H11.9986Z" fill="black"/>
<path d="M0.576186 9.72163C0.522609 9.72163 0.469031 9.71358 0.415454 9.69749C0.110063 9.60899 -0.064064 9.28717 0.0243387 8.98412C1.57273 3.69288 6.49649 0 11.9989 0C17.5013 0 22.4277 3.69288 23.9761 8.98412C24.0645 9.28985 23.8904 9.60899 23.585 9.69749C23.2796 9.78599 22.9608 9.61167 22.8724 9.30594C21.4687 4.50279 16.995 1.1505 11.9989 1.1505C7.0028 1.1505 2.53444 4.50547 1.12803 9.30594C1.0557 9.55803 0.825321 9.71894 0.576186 9.71894V9.72163Z" fill="black"/>
<path d="M4.70678 10.0406C4.73089 9.87706 4.73893 9.73492 4.73893 9.51501V7.30786C4.73893 7.11209 4.73089 6.96459 4.70678 6.78223C4.88091 6.79027 5.00949 6.79564 5.2238 6.79564H6.07568C6.47216 6.79564 6.74808 6.8895 6.94364 7.08527C7.10973 7.24886 7.19545 7.49291 7.19545 7.78791C7.19545 8.099 7.10169 8.3511 6.92221 8.53882C6.72129 8.73996 6.44537 8.83382 6.05425 8.83382H5.2747V9.51501C5.2747 9.73492 5.28274 9.89046 5.30685 10.046H4.7041L4.70678 10.0406ZM6.05693 8.35914C6.43197 8.35914 6.63557 8.158 6.63557 7.80132C6.63557 7.63773 6.59003 7.50364 6.50162 7.40977C6.40786 7.30786 6.27392 7.26227 6.05693 7.26227H5.27738V8.35914H6.05693Z" fill="black"/>
<path d="M10.4959 7.13615C10.7932 7.43384 10.9513 7.87902 10.9513 8.41002C10.9513 9.44253 10.3512 10.1103 9.427 10.1103C8.50279 10.1103 7.90808 9.44521 7.90808 8.41002C7.90808 7.88438 8.07149 7.43115 8.37153 7.13615C8.65281 6.85993 8.99034 6.72852 9.42164 6.72852C9.85294 6.72852 10.2173 6.85993 10.4932 7.13615H10.4959ZM10.3807 8.41002C10.3807 7.99702 10.2655 7.66716 10.0592 7.46065C9.89312 7.29706 9.67614 7.21124 9.43236 7.21124C8.84569 7.21124 8.47332 7.6752 8.47332 8.41539C8.47332 8.82302 8.59119 9.1663 8.80282 9.37816C8.96891 9.54175 9.1859 9.62757 9.43504 9.62757C10.0164 9.62757 10.3807 9.16362 10.3807 8.4127V8.41002Z" fill="black"/>
<path d="M12.4567 6.79297C12.4326 6.94851 12.4246 7.07456 12.4246 7.31861V9.51234C12.4246 9.75371 12.4326 9.88243 12.4567 10.038H11.8379C11.862 9.88243 11.87 9.75371 11.87 9.51234V7.31861C11.87 7.06652 11.862 6.95656 11.8379 6.79297H12.4567Z" fill="black"/>
<path d="M15.5616 10.0404C15.492 9.90096 15.4196 9.78296 15.3018 9.60328L14.2516 8.01563C14.174 7.89227 14.0722 7.71795 13.9757 7.52486C13.9775 7.56241 13.9829 7.63213 13.9918 7.73404C13.9972 7.81182 14.0052 7.99418 14.0052 8.08804V9.42628C14.0052 9.69982 14.0186 9.89023 14.0373 10.0377H13.4426C13.4641 9.90364 13.4748 9.69982 13.4748 9.42091V7.31568C13.4748 7.10381 13.4667 6.95631 13.4426 6.79004H14.0775C14.115 6.89195 14.1874 7.01531 14.3267 7.22181L15.358 8.77727C15.4571 8.92477 15.5857 9.13664 15.6768 9.30023C15.6607 9.142 15.6473 8.89527 15.6473 8.72364V7.35322C15.6473 7.11186 15.6393 6.94559 15.6152 6.79004H16.2099C16.1858 6.95363 16.1778 7.10381 16.1778 7.35322V9.51209C16.1778 9.74005 16.1858 9.8956 16.2099 10.0377H15.567L15.5616 10.0404Z" fill="black"/>
<path d="M18.6262 9.50986C18.6262 9.72977 18.6343 9.87191 18.6584 10.0409H18.0422C18.0664 9.86923 18.0744 9.72977 18.0744 9.50986V7.28126H17.5252C17.2841 7.28126 17.11 7.28931 16.968 7.31077V6.76367C17.1154 6.78513 17.2895 6.79317 17.5225 6.79317H19.1352C19.4299 6.79317 19.5799 6.78513 19.7353 6.76367V7.31077C19.5853 7.28931 19.4299 7.28126 19.1352 7.28126H18.6262V9.50986Z" fill="black"/>
<path d="M8.75277 19.1598C8.14197 19.1574 7.61641 19.0071 7.17607 18.7088C6.73809 18.4105 6.40073 17.9785 6.16399 17.4126C5.92962 16.8468 5.81361 16.1662 5.81598 15.3707C5.81598 14.5777 5.93317 13.9018 6.16754 13.343C6.40429 12.7843 6.74164 12.3594 7.17962 12.0682C7.61996 11.7746 8.14434 11.6278 8.75277 11.6278C9.3612 11.6278 9.8844 11.7746 10.3224 12.0682C10.7627 12.3617 11.1013 12.7879 11.338 13.3466C11.5747 13.9029 11.6919 14.5777 11.6896 15.3707C11.6896 16.1686 11.5712 16.8504 11.3344 17.4162C11.1001 17.982 10.7639 18.4141 10.3259 18.7124C9.88795 19.0107 9.36357 19.1598 8.75277 19.1598ZM8.75277 17.8849C9.16944 17.8849 9.50206 17.6754 9.75064 17.2564C9.99922 16.8374 10.1223 16.2088 10.12 15.3707C10.12 14.8191 10.0631 14.3598 9.9495 13.9929C9.83823 13.6259 9.67962 13.3501 9.47365 13.1655C9.27005 12.9808 9.02976 12.8885 8.75277 12.8885C8.33847 12.8885 8.00703 13.0956 7.75845 13.5099C7.50987 13.9242 7.3844 14.5445 7.38203 15.3707C7.38203 15.9295 7.43767 16.3958 7.54893 16.7699C7.66257 17.1416 7.82237 17.4209 8.02834 17.608C8.2343 17.7926 8.47578 17.8849 8.75277 17.8849ZM15.3742 19.0994C14.8439 19.0994 14.3716 19.0083 13.9573 18.826C13.5453 18.6413 13.2198 18.388 12.9807 18.0661C12.744 17.7417 12.6221 17.3677 12.615 16.9439H14.1632C14.1727 17.1214 14.2307 17.2777 14.3373 17.4126C14.4462 17.5452 14.5906 17.6482 14.7705 17.7216C14.9504 17.795 15.1528 17.8317 15.3777 17.8317C15.6121 17.8317 15.8193 17.7902 15.9992 17.7074C16.1791 17.6245 16.32 17.5097 16.4218 17.3629C16.5236 17.2161 16.5745 17.0469 16.5745 16.8551C16.5745 16.661 16.52 16.4893 16.4111 16.3402C16.3046 16.1887 16.1507 16.0703 15.9495 15.9851C15.7506 15.8999 15.5139 15.8572 15.2392 15.8572H14.561V14.728H15.2392C15.4712 14.728 15.676 14.6877 15.8536 14.6072C16.0335 14.5268 16.1732 14.4155 16.2726 14.2734C16.3721 14.129 16.4218 13.9609 16.4218 13.7692C16.4218 13.5869 16.378 13.4271 16.2904 13.2898C16.2051 13.1501 16.0844 13.0412 15.9282 12.9631C15.7743 12.8849 15.5944 12.8459 15.3884 12.8459C15.1801 12.8459 14.9895 12.8838 14.8167 12.9595C14.6438 13.0329 14.5053 13.1383 14.4012 13.2756C14.297 13.4129 14.2414 13.5739 14.2343 13.7585H12.7605C12.7676 13.3395 12.8872 12.9702 13.1192 12.6506C13.3512 12.331 13.6637 12.0812 14.0567 11.9013C14.4521 11.719 14.8983 11.6278 15.3955 11.6278C15.8974 11.6278 16.3365 11.719 16.713 11.9013C17.0894 12.0836 17.3818 12.3298 17.5901 12.6399C17.8008 12.9477 17.905 13.2933 17.9026 13.6768C17.905 14.084 17.7783 14.4238 17.5226 14.696C17.2693 14.9683 16.9391 15.1411 16.5319 15.2145V15.2713C17.0669 15.34 17.4741 15.5258 17.7534 15.8288C18.0352 16.1295 18.1748 16.5059 18.1725 16.9581C18.1748 17.3724 18.0553 17.7405 17.8138 18.0625C17.5747 18.3845 17.2444 18.6378 16.823 18.8224C16.4016 19.0071 15.9187 19.0994 15.3742 19.0994Z" fill="#ED780B"/>
</g>
<defs>
<clipPath id="clip0_6026_2304">
<rect width="24" height="25" fill="white"/>
</clipPath>
</defs>
</svg>
