<svg width="31" height="113" viewBox="0 0 31 113" fill="none" xmlns="http://www.w3.org/2000/svg">
<g clip-path="url(#clip0_6026_607)">
<path d="M6.46496 9.25277C2.43944 8.7366 1.13888 5.92206 0.540213 2.77968C0.502366 1.702 -0.292418 -0.00695402 1.00126 2.12859e-05C4.64487 1.05678 8.69449 4.08406 7.06019 8.87959C6.97073 9.13419 6.72645 9.28765 6.46496 9.25626V9.25277Z" fill="#C9A304"/>
<path d="M13.7212 17.1453C11.7807 14.8608 11.7015 12.6148 12.2623 10.6164C12.806 8.9946 14.5951 4.85824 15.6445 6.23936C17.4439 9.05041 19.0645 15.1294 14.4162 17.2987C14.1822 17.4208 13.8966 17.358 13.7212 17.1453Z" fill="#C9A304"/>
<path d="M18.6136 29.8195C15.7201 26.0179 18.5414 20.6504 21.2664 18.4149C21.5657 18.1358 22.0474 18.2788 22.2194 18.7043C23.1277 20.6121 24.1427 25.3658 22.357 27.8071C21.8341 28.5535 19.8213 30.7437 18.6136 29.8195Z" fill="#C9A304"/>
<path d="M21.7721 43.5887C19.9623 39.843 21.5932 36.1356 24.325 33.6594C25.3228 32.9479 26.4582 31.1343 27.1876 32.5468C28.2508 36.1112 28.1063 43.1702 22.4602 43.9758C22.1746 44.0316 21.889 43.8712 21.7721 43.5887Z" fill="#C9A304"/>
<path d="M22.8593 58.2125C21.0117 53.4658 25.7426 48.4017 29.2967 46.9927C29.6993 46.7939 30.1672 47.1043 30.2222 47.61C30.5869 49.9362 30.1431 55.3421 27.4594 57.344C26.7335 57.9474 23.7367 59.6005 22.8593 58.2125Z" fill="#C9A304"/>
<path d="M21.607 73.3453C20.561 67.9115 26.1727 63.7787 30.1088 62.8056C31.7396 62.7812 30.6489 65.2609 30.5629 66.642C29.7441 70.7121 26.9193 74.7822 22.2091 73.994C21.8926 73.9521 21.6448 73.6836 21.6104 73.3453H21.607Z" fill="#C9A304"/>
<path d="M17.8086 88.5724C17.8568 84.035 21.5761 80.7775 25.5878 79.7591C26.9779 79.5568 29.0938 78.2734 29.0973 80.1253C28.3197 83.6583 26.479 87.8505 22.8835 89.3118C21.9064 89.678 18.2456 90.3267 17.8086 88.5689V88.5724Z" fill="#C9A304"/>
<path d="M11.3403 103.416C12.1592 99.9458 14.1376 97.8114 17.1034 96.6465C19.1746 95.9176 25.1441 94.4702 24.4216 96.7163C23.5511 99.2832 20.2481 104.539 16.429 105.087C15.3693 105.296 11.4814 105.299 11.3438 103.416H11.3403Z" fill="#C9A304"/>
<path d="M9.58551 19.1368C8.92491 14.1843 3.50593 13.8181 0.447215 14.7388C0.082509 14.833 -0.110166 15.2445 0.0653059 15.5515C1.61359 18.3381 4.99228 21.7351 9.24489 19.7576C9.48573 19.6529 9.62679 19.3983 9.58551 19.1368Z" fill="#C9A304"/>
<path d="M14.2029 31.2076C14.4988 26.3284 8.60498 24.5776 5.30886 25.2472C4.91663 25.2926 4.65515 25.6902 4.78933 26.0354C5.39832 27.7618 7.50398 31.1658 10.026 31.7936C10.8551 31.9924 13.6661 32.5992 14.2029 31.2076Z" fill="#C9A304"/>
<path d="M17.1687 44.3037C17.7914 40.2685 14.6433 37.6074 11.1785 37.0215C10.0053 36.9587 8.2265 36.1321 8.14392 37.4923C8.9387 40.9416 11.4779 45.5732 16.6044 44.8548C16.8934 44.8234 17.1239 44.5967 17.1652 44.3037H17.1687Z" fill="#C9A304"/>
<path d="M18.163 58.1917C20.0313 53.2078 14.4713 49.3539 10.6762 49.0296C10.2427 48.9529 9.84706 49.2877 9.88835 49.6887C9.99156 51.6976 11.1201 55.9282 13.5698 57.4139C14.3164 57.8812 17.2341 59.4821 18.163 58.1917Z" fill="#C9A304"/>
<path d="M16.9382 72.5538C19.6907 67.5385 14.5607 62.8581 10.7004 61.8397C10.2634 61.6863 9.80236 61.9653 9.78171 62.3908C9.38604 66.7922 11.0788 72.0551 16.1744 72.9339C16.4875 73.0002 16.8006 72.8433 16.9382 72.5538Z" fill="#C9A304"/>
<path d="M13.298 86.996C16.0367 83.4804 14.2476 78.7023 10.9618 76.404C9.7954 75.7239 8.40883 73.9696 7.61749 75.2914C6.51305 79.8358 7.32848 85.3986 12.4412 87.2506C12.7509 87.3761 13.1053 87.268 13.298 86.9925V86.996Z" fill="#C9A304"/>
<path d="M7.12212 101.065C11.7394 96.9011 8.07174 90.2257 4.44188 87.8123C2.77318 86.8288 2.4704 91.1046 2.16763 92.1893C1.63433 95.8129 2.80414 99.1158 6.1966 101.177C6.49593 101.362 6.87784 101.316 7.12212 101.065Z" fill="#C9A304"/>
<path d="M8.09239 11.3069C26.3208 42.2528 24.1773 83.6269 2.81104 112.445" stroke="#C9A304" stroke-width="3.18" stroke-linecap="round" stroke-linejoin="round"/>
</g>
<defs>
<clipPath id="clip0_6026_607">
<rect width="31" height="113" fill="white"/>
</clipPath>
</defs>
</svg>
